<svg width="32" height="32" viewBox="0 0 32 32" fill="none" xmlns="http://www.w3.org/2000/svg">
<g id="attack">
<g id="Group">
<path id="Vector" d="M28.7441 3.25244H28.743C28.5027 3.01315 28.1519 2.93844 27.8043 3.05213L24.6936 4.05908C24.4695 4.04934 24.1479 4.24747 23.3867 4.90794C22.8215 5.39951 22.0658 6.10762 21.0783 7.07126C19.2885 8.81772 17.1296 11.0233 15.395 12.7957C14.0806 14.1383 12.8332 15.4127 12.4976 15.7115C11.993 15.7613 11.4733 16.2735 11.0705 16.6892C11.0359 16.6546 11.0023 16.6189 10.9688 16.5831C9.85572 15.4127 8.33229 13.8102 6.52953 15.4549L6.51979 15.4636C5.59837 16.3742 5.73048 17.6117 6.27076 18.4324C6.75475 19.1698 7.69998 19.7274 8.77189 19.4037L9.25804 19.8887L5.7413 23.4044H5.74022C4.66506 23.4044 3.696 24.0573 3.24341 25.1021C2.77242 26.1924 2.99655 27.4019 3.8151 28.1858C4.33049 28.7185 5.02344 28.9989 5.74562 28.9989C6.13 28.9989 6.52304 28.9188 6.902 28.7553C7.94143 28.3038 8.59324 27.3337 8.5954 26.2574L12.1111 22.7428L12.5972 23.229C12.3157 24.1894 12.6828 25.1552 13.5663 25.7355C14.3783 26.2693 15.6116 26.3971 16.534 25.48L16.546 25.4681C18.1885 23.6642 16.586 22.1419 15.4156 21.0299C15.3798 20.9964 15.3441 20.9628 15.3095 20.9293C15.7187 20.533 16.2244 20.0208 16.2861 19.5228C18.052 17.7557 20.9462 14.8627 23.4788 12.3301L27.0334 8.77657C27.5282 8.28068 27.682 8.10636 27.9147 7.38742L28.9498 4.19334C29.0613 3.84361 28.9845 3.49172 28.7441 3.25244ZM6.78939 27.2005L6.78181 27.207C6.32706 27.691 5.69907 27.6704 5.26273 27.4907C4.82638 27.3098 4.3673 26.88 4.38679 26.2152V26.1979C4.37921 25.8352 4.53621 25.4703 4.81881 25.1963C5.07108 24.9527 5.39266 24.8109 5.71532 24.7979L5.96651 25.048L5.38291 25.6327C5.11222 25.9034 5.11223 26.3451 5.38399 26.6169C5.65576 26.8887 6.09751 26.8876 6.3682 26.6158L6.9518 26.0322L7.19975 26.2812C7.18243 26.6277 7.03842 26.9504 6.78939 27.2005ZM7.8862 24.9971L7.00161 24.1136L7.42496 23.6902L8.30956 24.5738L7.8862 24.9971ZM9.29377 23.5895L8.41025 22.706L8.83468 22.2816L9.7182 23.1662L9.29377 23.5895ZM10.7024 22.1809L9.81889 21.2974L10.2423 20.874L11.1258 21.7576L10.7024 22.1809ZM15.5434 23.1424C16.0187 23.6458 15.8443 24.1666 15.5509 24.4601C15.2261 24.7827 14.6663 24.9311 14.2018 24.4936C13.7969 24.0746 13.8835 23.8278 13.9918 23.517C14.0806 23.2658 14.2007 22.9215 13.9268 22.5902L12.4207 21.083C12.281 20.9433 12.071 20.7333 11.8252 20.4875C11.5794 20.2417 11.299 19.9602 11.0175 19.6798L9.56877 18.2311C9.52546 18.1878 9.47893 18.1401 9.42695 18.099L9.43235 18.0946C9.2158 17.8781 8.8899 17.8283 8.61814 17.969L8.59324 17.9842C8.18937 18.243 7.73245 18.0405 7.48018 17.7427C7.21382 17.4298 7.08281 16.9242 7.50941 16.4435C7.88187 16.0786 8.48171 16.0797 8.85093 16.45L11.6065 19.2034C11.783 19.3853 12.0201 19.4546 12.2561 19.3918C12.5084 19.3257 12.7141 19.1211 12.7802 18.8688C12.8419 18.6328 12.7737 18.3967 12.5929 18.2202C12.5712 18.1986 12.2724 17.8997 12.0537 17.681L12.5236 17.2122C12.6394 17.0953 12.6882 17.092 12.8008 17.0953L14.8515 17.1494L14.9056 19.199C14.9078 19.3095 14.9045 19.3593 14.7876 19.4762L14.3166 19.9483C14.3047 19.9353 14.2928 19.9223 14.2809 19.9093C14.0156 19.6116 13.6843 19.2402 13.2912 19.2348C13.1689 19.2337 12.9848 19.2683 12.8246 19.4372C12.6936 19.5693 12.62 19.7437 12.62 19.9299C12.62 20.1161 12.6925 20.2904 12.8246 20.4225L15.5434 23.1424ZM26.5906 6.95865C26.4967 7.24666 26.3159 7.52457 26.0481 7.79237C24.8538 8.98663 23.0868 10.7537 21.2797 12.5597C19.465 14.3754 17.6103 16.2302 16.2558 17.5847L16.233 16.752L18.941 14.0441C19.072 13.912 19.1445 13.7377 19.1445 13.5515C19.1445 13.3652 19.072 13.1909 18.941 13.0588C18.6692 12.7881 18.2275 12.7881 17.9568 13.0588L15.2488 15.7667L14.4552 15.7462C14.9976 15.2124 15.8746 14.3148 17.1198 13.0404C19.6209 10.4797 24.2562 5.73408 24.9599 5.42333C25.0357 5.4125 25.1711 5.36811 25.4937 5.26416L27.3322 4.66866L26.5906 6.95865Z" fill="black"/>
<path id="Vector_2" opacity="0.2" d="M15.5509 24.4601C15.2261 24.7827 14.6663 24.9311 14.2018 24.4936C13.7969 24.0746 13.8835 23.8278 13.9918 23.517C14.0806 23.2658 14.2007 22.9215 13.9268 22.5902L12.4207 21.083C12.281 20.9433 12.071 20.7333 11.8252 20.4875C11.5794 20.2417 11.299 19.9602 11.0175 19.6798L9.56877 18.2311C9.52546 18.1878 9.47892 18.1401 9.42695 18.099L9.43234 18.0946C9.21579 17.8781 8.8899 17.8283 8.61813 17.9691L8.59323 17.9842C8.18937 18.243 7.73245 18.0405 7.48017 17.7428C7.21382 17.4298 7.08281 16.9242 7.50941 16.4435C7.88187 16.0786 8.48171 16.0797 8.85092 16.45L11.6065 19.2034C11.783 19.3853 12.0201 19.4546 12.2561 19.3918C12.5084 19.3257 12.7141 19.1211 12.7802 18.8688C12.8419 18.6328 12.7737 18.3967 12.5929 18.2202C12.5712 18.1986 12.2724 17.8998 12.0537 17.681L12.5236 17.2122C12.6394 17.0953 12.6882 17.092 12.8008 17.0953L14.8515 17.1494L14.9056 19.1991C14.9078 19.3095 14.9045 19.3593 14.7876 19.4762L14.3166 19.9483C14.3047 19.9353 14.2928 19.9223 14.2809 19.9093C14.0156 19.6116 13.6843 19.2402 13.2912 19.2348C13.1689 19.2337 12.9848 19.2683 12.8246 19.4372C12.6936 19.5693 12.6199 19.7437 12.6199 19.9299C12.6199 20.1161 12.6925 20.2904 12.8246 20.4225L15.5433 23.1424C16.0187 23.6459 15.8443 24.1667 15.5509 24.4601Z" fill="black"/>
<path id="Vector_3" opacity="0.2" d="M27.3322 4.66866L26.5906 6.95865C26.4967 7.24666 26.3159 7.52457 26.0481 7.79236C24.8538 8.98663 23.0868 10.7537 21.2797 12.5597C19.465 14.3754 17.6103 16.2302 16.2558 17.5847L16.2331 16.752L18.941 14.0441C19.072 13.912 19.1446 13.7377 19.1446 13.5515C19.1446 13.3652 19.072 13.1909 18.941 13.0588C18.6692 12.7881 18.2275 12.7881 17.9568 13.0588L15.2489 15.7667L14.4552 15.7462C14.9977 15.2124 15.8747 14.3148 17.1198 13.0404C19.6209 10.4797 24.2562 5.73408 24.9599 5.42333C25.0357 5.4125 25.1711 5.36811 25.4937 5.26416L27.3322 4.66866Z" fill="black"/>
</g>
</g>
</svg>
