<svg width="32" height="31" viewBox="0 0 32 31" fill="none" xmlns="http://www.w3.org/2000/svg">
<g id="bug">
<g id="Frame 1">
<g id="Group">
<path id="Vector" d="M27.153 15.0205C26.6605 12.5049 25.4356 10.1416 23.6702 8.28333C22.4014 10.439 20.2822 12.0343 17.775 12.6093C15.0267 18.0787 16.7566 25.3491 21.3966 29C25.0255 26.5428 27.4107 22.388 27.4107 17.676C27.4107 16.7849 27.3241 15.8949 27.153 15.0205ZM21.4853 26.8422C18.2967 23.6035 17.2147 18.23 18.9665 14.0147C20.7841 13.444 22.4243 12.3985 23.714 11.0045C24.5915 12.3171 25.2144 13.8071 25.5149 15.3398C25.6651 16.1099 25.7413 16.8955 25.7413 17.676C25.7413 21.2319 24.171 24.5728 21.4853 26.8422Z" fill="black"/>
<path id="Vector_2" opacity="0.2" d="M25.7413 17.676C25.7413 21.2319 24.171 24.5729 21.4853 26.8422C18.2966 23.6035 17.2146 18.23 18.9665 14.0147C20.7841 13.444 22.4243 12.3985 23.714 11.0045C24.5915 12.3171 25.2144 13.8071 25.5149 15.3398C25.6651 16.1099 25.7413 16.8955 25.7413 17.676Z" fill="black"/>
<path id="Vector_3" d="M13.6358 12.6093C11.1285 12.0343 9.00935 10.439 7.74058 8.28333C5.97515 10.1416 4.7502 12.5049 4.25772 15.0205C4.08765 15.8949 4 16.7849 4 17.676C4 22.388 6.38521 26.5428 10.0141 29C14.6541 25.3491 16.3841 18.0787 13.6358 12.6093ZM9.9265 26.8422C7.24079 24.5728 5.66944 21.2319 5.66944 17.676C5.66944 16.8955 5.7456 16.1099 5.89585 15.3409C6.19635 13.8071 6.8203 12.3171 7.69676 11.0045C8.9864 12.3974 10.6266 13.444 12.4442 14.0147C14.1961 18.23 13.1141 23.6035 9.9265 26.8422Z" fill="black"/>
<path id="Vector_4" opacity="0.2" d="M9.92649 26.8422C7.24079 24.5729 5.66943 21.2319 5.66943 17.676C5.66943 16.8955 5.7456 16.1099 5.89585 15.3409C6.19635 13.8071 6.8203 12.3171 7.69675 11.0045C8.98639 12.3975 10.6266 13.444 12.4442 14.0147C14.1961 18.23 13.1141 23.6035 9.92649 26.8422Z" fill="black"/>
<path id="Vector_5" d="M22.2334 7.23055C20.8822 9.77018 18.2904 11.039 15.6986 11.039C13.1068 11.039 10.516 9.77018 9.16376 7.23055C9.90353 6.82676 10.685 6.48974 11.4999 6.2268L10.0287 3.67883C9.71989 3.14356 9.90248 2.45909 10.4377 2.15025C10.6141 2.048 10.8071 2 10.997 2C11.3831 2 11.7597 2.20033 11.9674 2.5603L13.7829 5.70406C14.4089 5.61642 15.0485 5.56946 15.6986 5.56946C16.3486 5.56946 16.9892 5.61642 17.6153 5.70406L19.4308 2.5603C19.6384 2.20033 20.0141 2 20.4012 2C20.591 2 20.783 2.048 20.9594 2.15025C21.4946 2.45909 21.6783 3.14356 21.3694 3.67883L19.8982 6.2268C20.7131 6.48974 21.4946 6.82676 22.2334 7.23055Z" fill="black"/>
</g>
</g>
</g>
</svg>
