<svg width="32" height="32" viewBox="0 0 32 32" fill="none" xmlns="http://www.w3.org/2000/svg">
<g id="dark">
<g id="Group">
<path id="Vector" d="M24.8458 15.9995C24.8458 20.8768 20.8769 24.8447 16.0005 24.8447C15.8527 24.8447 15.7028 24.8417 15.5549 24.8306C17.8903 22.6127 19.3446 19.4772 19.3446 15.9995C19.3446 12.5217 17.8903 9.38631 15.5549 7.16842C15.7028 7.15728 15.8527 7.15424 16.0005 7.15424C20.8779 7.15424 24.8458 11.1232 24.8458 15.9995Z" fill="black"/>
<g id="Group_2">
<path id="Vector_2" d="M16.0005 3C14.369 3 12.783 3.29774 11.2882 3.88513L11.2133 3.91248C11.2062 3.91552 11.1981 3.91855 11.191 3.92159C8.80197 4.87255 6.76333 6.49799 5.29587 8.62272C3.79399 10.7971 3 13.3481 3 15.9995C3 18.6508 3.79399 21.2039 5.29587 23.3783C6.76333 25.502 8.80197 27.1264 11.191 28.0784C11.1991 28.0814 11.2062 28.0845 11.2143 28.0875L11.2882 28.1149C12.783 28.7023 14.369 29 16.0005 29C23.1676 29 29 23.1676 29 15.9995C29 8.83134 23.1676 3 16.0005 3ZM16.0005 27.3796C14.5705 27.3796 13.1831 27.1183 11.8766 26.6049C11.8696 26.6018 11.8635 26.5998 11.8564 26.5978L11.7845 26.5704C9.6952 25.737 7.91279 24.3151 6.62965 22.4577C5.31512 20.5548 4.62038 18.3217 4.62038 15.9995C4.62038 13.6773 5.31512 11.4462 6.62965 9.5433C7.91279 7.68492 9.6952 6.26203 11.7845 5.42956L11.8564 5.40221C11.8635 5.40019 11.8696 5.39715 11.8766 5.39512C13.1831 4.88065 14.5705 4.62038 16.0005 4.62038C22.2744 4.62038 27.3796 9.72559 27.3796 15.9995C27.3796 22.2734 22.2744 27.3796 16.0005 27.3796Z" fill="black"/>
<path id="Vector_3" opacity="0.2" d="M27.3796 15.9995C27.3796 22.2744 22.2744 27.3796 16.0005 27.3796C14.5705 27.3796 13.1831 27.1183 11.8766 26.6049C11.8695 26.6018 11.8635 26.5998 11.8564 26.5978L11.7845 26.5705C9.69519 25.737 7.91277 24.3151 6.62963 22.4577C5.3151 20.5548 4.62036 18.3217 4.62036 15.9995C4.62036 13.6773 5.3151 11.4462 6.62963 9.54331C7.91277 7.68494 9.69519 6.26204 11.7845 5.42957L11.8564 5.40222C11.8635 5.4002 11.8695 5.39716 11.8766 5.39514C13.1831 4.88066 14.5705 4.62039 16.0005 4.62039C22.2744 4.62039 27.3796 9.7256 27.3796 15.9995Z" fill="black"/>
</g>
</g>
</g>
</svg>
