<svg width="32" height="32" viewBox="0 0 32 32" fill="none" xmlns="http://www.w3.org/2000/svg">
<g id="defend">
<g id="Group">
<g id="Group_2">
<path id="Vector" opacity="0.2" d="M16.0854 28.0896C15.6007 28.0214 13.0975 27.0111 10.6874 24.6498C8.50668 22.5133 5.90814 18.7819 5.90814 13.1341V8.9849C5.90814 8.4468 6.25326 7.97569 6.76865 7.81222C9.80764 6.84387 12.6582 5.61783 15.4838 4.06371C15.6688 3.96154 15.8777 3.90819 16.0877 3.90819C16.2977 3.90819 16.5054 3.96154 16.6905 4.06258C19.4718 5.58377 22.4029 6.84501 25.4056 7.80995C25.9187 7.97455 26.2627 8.44567 26.2627 8.98263V13.1353C26.2627 18.7819 23.6641 22.5145 21.4845 24.651C19.0744 27.0122 16.5713 28.0226 16.0865 28.0907L16.0854 28.0896Z" fill="black"/>
<path id="Vector_2" d="M16.0877 4.81636C16.1456 4.81636 16.2024 4.83111 16.2546 4.85949C19.0847 6.40794 22.0703 7.69187 25.1275 8.67498C25.2637 8.71811 25.3545 8.84185 25.3545 8.98262V13.1353C25.3545 18.4674 22.9047 21.9877 20.8489 24.0016C18.751 26.0564 16.7087 26.9486 16.0855 27.1519C15.4622 26.9486 13.4199 26.0564 11.322 24.0016C9.26616 21.9877 6.81522 18.4674 6.81522 13.1353V8.98603C6.81522 8.84526 6.90604 8.72152 7.04226 8.67838C10.138 7.69301 13.0419 6.44313 15.9197 4.85949C15.9719 4.83111 16.0276 4.81636 16.0855 4.81636M16.0877 3C15.729 3 15.3714 3.08968 15.0467 3.26791C12.2859 4.78684 9.46258 6.00153 6.49283 6.94717C5.60509 7.22984 5 8.05287 5 8.98603V13.1353C5 19.0986 7.74724 23.0412 10.0517 25.2992C12.6673 27.8625 15.4645 29 16.0855 29C16.7064 29 19.5036 27.8625 22.1192 25.2992C24.4237 23.0412 27.1698 19.0986 27.1698 13.1353V8.98262C27.1698 8.05173 26.5681 7.23097 25.6826 6.94603C22.7503 6.0038 19.843 4.75392 17.1253 3.26677C16.8018 3.08968 16.4442 3.00114 16.0866 3.00114L16.0877 3Z" fill="black"/>
</g>
<path id="Vector_3" d="M21.6174 16.7839L18.9031 12.2237C18.5602 11.6107 17.5896 11.6118 17.2468 12.2237L16.7484 13.0626C16.1638 12.2487 15.2352 9.51051 13.9297 11.1089L10.5524 16.7827C10.1675 17.3833 10.6784 18.2177 11.3799 18.1904C16.233 18.4175 15.7403 17.7829 18.0743 13.9504L19.6659 16.6227H17.2831L16.3488 18.1904H20.7898C21.4925 18.2165 22.0022 17.3856 21.6174 16.7839ZM15.8198 14.6201C14.6471 16.6011 14.9048 16.7101 12.5061 16.6227L14.7606 12.8356L15.8209 14.6201H15.8198Z" fill="black"/>
</g>
</g>
</svg>
