<svg width="32" height="32" viewBox="0 0 32 32" fill="none" xmlns="http://www.w3.org/2000/svg">
<g id="dragon">
<g id="Group">
<path id="Vector" d="M12.8714 11.2874C12.6495 11.0627 12.3088 11.0047 12.0243 11.1428C11.9534 11.1778 10.2639 12.012 8.94271 13.4188C8.70517 13.672 8.62323 14.0339 8.72911 14.3635C8.83407 14.6922 9.10937 14.938 9.44174 15.0043L10.1562 15.1525C10.2621 15.1737 10.3689 15.1838 10.4748 15.1838C11.0788 15.1838 11.6468 14.845 11.924 14.2917L13.0058 12.1354C13.1476 11.8527 13.0933 11.512 12.8714 11.2874ZM12.8714 11.2874C12.6495 11.0627 12.3088 11.0047 12.0243 11.1428C11.9534 11.1778 10.2639 12.012 8.94271 13.4188C8.70517 13.672 8.62323 14.0339 8.72911 14.3635C8.83407 14.6922 9.10937 14.938 9.44174 15.0043L10.1562 15.1525C10.2621 15.1737 10.3689 15.1838 10.4748 15.1838C11.0788 15.1838 11.6468 14.845 11.924 14.2917L13.0058 12.1354C13.1476 11.8527 13.0933 11.512 12.8714 11.2874ZM24.5395 11.0655C22.8381 9.05098 20.528 7.74725 17.962 7.3357L18.7768 4.53582C18.914 4.06349 18.7529 3.56172 18.3653 3.25788C17.9786 2.95313 17.4528 2.91537 17.0265 3.1612C10.7565 6.77407 7.56073 10.5757 5.98447 13.1288C4.23605 15.9591 4.01324 17.9395 4.00403 18.0224C3.98101 18.2406 4.05743 18.4579 4.21119 18.6153C4.36495 18.7718 4.58223 18.851 4.80044 18.8326C4.8207 18.8308 5.31604 18.7875 6.12258 18.7019C7.65004 18.538 9.93156 18.259 12.1275 17.8585C14.8767 17.3585 16.7669 16.8116 17.8718 16.1939C18.5531 16.8061 18.949 17.6799 18.949 18.6107C18.949 20.4024 17.4906 21.859 15.697 21.859C15.6381 21.859 15.582 21.8571 15.5249 21.8553C15.5147 21.8544 15.5055 21.8544 15.4954 21.8544C15.4678 21.8553 15.4383 21.8562 15.4107 21.859C13.3529 22.0891 11.4029 20.9861 11.3844 20.976C11.2113 20.8747 11.0042 20.8499 10.8118 20.9051C10.6193 20.9604 10.4573 21.092 10.3643 21.2688L9.94077 22.0698C8.48512 21.661 7.37106 20.2827 6.80759 19.4421C6.61424 19.153 6.24503 19.0388 5.92187 19.1687C5.59962 19.2976 5.41087 19.6355 5.47072 19.978C5.92831 22.6195 7.3462 24.9931 9.46199 26.6623C11.3918 28.1843 13.7626 29 16.2172 29C16.4999 29 16.7844 28.989 17.0698 28.9669C19.6119 28.7717 22.0232 27.6677 23.86 25.8576C25.6969 24.0466 26.8349 21.6518 27.065 19.1134C27.3311 16.1671 26.4344 13.3083 24.5395 11.0655ZM25.5974 18.9799C25.3995 21.1721 24.4143 23.2419 22.8252 24.808C21.2369 26.3741 19.1525 27.3298 16.9566 27.4983C14.5729 27.6815 12.2352 26.9735 10.3744 25.5059C9.41596 24.7491 8.62323 23.8265 8.02845 22.7907C8.86261 23.3349 9.63417 23.5558 10.2492 23.6286C10.5503 23.6654 10.8449 23.5107 10.9876 23.2419L11.3329 22.5873C12.2039 22.9666 13.7967 23.5061 15.5193 23.3284C15.5773 23.3312 15.6363 23.3321 15.697 23.3321C18.3027 23.3321 20.4221 21.2145 20.4221 18.6107C20.4221 17.0299 19.6368 15.5604 18.3211 14.682C18.0596 14.5071 17.7171 14.5172 17.4666 14.7069C17.0229 15.043 15.7053 15.7114 11.8632 16.4084C9.71151 16.8015 7.46866 17.0759 5.96606 17.237C5.86571 17.2481 5.77087 17.2582 5.68064 17.2674C5.9099 16.4949 6.37485 15.2787 7.29741 13.8055C9.84317 9.74243 13.9597 6.7041 17.1702 4.78534L16.3047 7.7583C16.243 7.97098 16.2808 8.20024 16.406 8.38347C16.5321 8.56577 16.7338 8.68086 16.9547 8.69835C19.4793 8.89538 21.7737 10.073 23.4144 12.0166C25.0533 13.9565 25.8285 16.4295 25.5974 18.9799ZM12.0243 11.1428C11.9534 11.1778 10.2639 12.012 8.94271 13.4188C8.70517 13.672 8.62323 14.0339 8.72911 14.3635C8.83407 14.6922 9.10937 14.938 9.44174 15.0043L10.1562 15.1525C10.2621 15.1737 10.3689 15.1838 10.4748 15.1838C11.0788 15.1838 11.6468 14.845 11.924 14.2917L13.0058 12.1354C13.1476 11.8527 13.0933 11.512 12.8714 11.2874C12.6495 11.0627 12.3088 11.0047 12.0243 11.1428Z" fill="black"/>
<path id="Vector_2" opacity="0.2" d="M23.4145 12.0166C21.7737 10.073 19.4793 8.89539 16.9547 8.69836C16.7338 8.68086 16.5321 8.56577 16.406 8.38347C16.2808 8.20025 16.243 7.97099 16.3047 7.7583L17.1702 4.78534C13.9597 6.7041 9.84319 9.74244 7.29743 13.8055C6.37488 15.2787 5.90992 16.4949 5.68066 17.2674C5.77089 17.2582 5.86573 17.2481 5.96609 17.237C7.46869 17.0759 9.71153 16.8015 11.8632 16.4084C15.7054 15.7114 17.0229 15.043 17.4667 14.7069C17.7171 14.5172 18.0596 14.5071 18.3211 14.682C19.6368 15.5604 20.4221 17.0299 20.4221 18.6107C20.4221 21.2145 18.3027 23.3321 15.6971 23.3321C15.6363 23.3321 15.5774 23.3312 15.5194 23.3284C13.7967 23.5061 12.2039 22.9666 11.3329 22.5873L10.9876 23.2419C10.8449 23.5107 10.5503 23.6654 10.2492 23.6286C9.63419 23.5559 8.86264 23.3349 8.02847 22.7907C8.62325 23.8265 9.41598 24.7491 10.3744 25.5059C12.2352 26.9735 14.5729 27.6815 16.9566 27.4983C19.1525 27.3298 21.237 26.3741 22.8252 24.808C24.4143 23.2419 25.3995 21.1721 25.5975 18.9799C25.8286 16.4295 25.0533 13.9565 23.4145 12.0166ZM13.0058 12.1354L11.924 14.2917C11.6469 14.845 11.0788 15.1838 10.4748 15.1838C10.3689 15.1838 10.2621 15.1737 10.1562 15.1525L9.44177 15.0043C9.10939 14.938 8.83409 14.6922 8.72913 14.3635C8.62325 14.0339 8.70519 13.672 8.94274 13.4188C10.264 12.012 11.9535 11.1778 12.0244 11.1428C12.3089 11.0047 12.6495 11.0627 12.8714 11.2874C13.0933 11.512 13.1476 11.8527 13.0058 12.1354Z" fill="black"/>
</g>
</g>
</svg>
