<svg width="32" height="32" viewBox="0 0 32 32" fill="none" xmlns="http://www.w3.org/2000/svg">
<g id="electric">
<g id="Group">
<path id="Vector" d="M24.2122 16.9344L19.9172 3.74299C19.7725 3.2997 19.36 3 18.8939 3H10.8088C10.0749 3 9.55641 3.7202 9.78774 4.41647L12.3324 12.0492C12.4497 12.4013 12.1876 12.7625 11.8184 12.7625H11.807L7.55422 12.6828H7.54282C7.09156 12.6828 6.83631 13.2047 7.11777 13.5614L19.2426 28.8974C19.2984 28.9692 19.3736 29 19.4466 29C19.605 29 19.7565 28.8564 19.7075 28.6661L17.2085 19.0483C17.0729 18.5253 17.4672 18.0147 18.0073 18.0147H23.427C23.9877 18.0147 24.3854 17.4677 24.2122 16.9344ZM18.0073 16.1914C17.1811 16.1914 16.4176 16.5664 15.9117 17.2205C15.4069 17.8734 15.2359 18.7076 15.4433 19.5064L16.0803 21.9587L10.2287 14.5573L11.7728 14.5858H11.8184C12.5762 14.5858 13.293 14.2189 13.7374 13.6035C14.1807 12.9882 14.3015 12.1916 14.0622 11.4726L11.8458 4.82328H18.3515L22.0527 16.1914H18.0073Z" fill="black"/>
<path id="Vector_2" opacity="0.2" d="M22.0527 16.1914H18.0073C17.1812 16.1914 16.4177 16.5664 15.9117 17.2205C15.4069 17.8734 15.2359 18.7076 15.4433 19.5064L16.0804 21.9587L10.2288 14.5573L11.7729 14.5858H11.8184C12.5762 14.5858 13.293 14.2189 13.7374 13.6035C14.1807 12.9882 14.3015 12.1916 14.0622 11.4726L11.8458 4.82329H18.3515L22.0527 16.1914Z" fill="black"/>
</g>
</g>
</svg>
