<svg width="32" height="32" viewBox="0 0 32 32" fill="none" xmlns="http://www.w3.org/2000/svg">
<g id="fairy">
<g id="Group">
<path id="Vector" opacity="0.2" d="M28.23 16.0019L22.3169 12.6204L23.4174 8.58546L19.3825 9.68502L16.001 3.7719L12.6194 9.68502L8.58449 8.58546L9.68405 12.6204L3.77094 16.0019L9.68405 19.3835L8.58449 23.4184L12.6194 22.3188L16.001 28.2319L19.3825 22.3188L23.4174 23.4184L22.3169 19.3835L28.23 16.0019ZM17.9399 17.5611C17.7934 17.6672 17.6662 17.7944 17.5602 17.9408L16.001 20.1139L14.4417 17.9408C14.3348 17.7944 14.2076 17.6672 14.0611 17.5611L11.8889 16.0019L14.0611 14.4427C14.2076 14.3367 14.3348 14.2085 14.4417 14.063L16.001 11.8899L17.5602 14.063C17.6662 14.2085 17.7934 14.3367 17.9399 14.4427L20.113 16.0019L17.9399 17.5611Z" fill="black"/>
<path id="Vector_2" d="M16.001 29.0029C15.7244 29.0029 15.469 28.8545 15.3322 28.6145L12.2465 23.2189L8.78688 24.1614C8.51994 24.2346 8.2347 24.1585 8.03907 23.9628C7.84344 23.7672 7.76731 23.482 7.84055 23.215L8.78302 19.7554L3.38836 16.6698C3.14841 16.5329 3 16.2775 3 16.001C3 15.7244 3.14841 15.469 3.38836 15.3322L8.78302 12.2465L7.84055 8.78687C7.76827 8.51993 7.84344 8.23468 8.03907 8.03906C8.2347 7.84343 8.51994 7.76731 8.78688 7.84055L12.2465 8.78302L15.3322 3.38835C15.469 3.1484 15.7244 3 16.001 3C16.2775 3 16.5329 3.1484 16.6698 3.38835L19.7554 8.78302L23.2141 7.84055C23.481 7.76827 23.7663 7.84343 23.9619 8.03906C24.1575 8.23468 24.2336 8.51993 24.1604 8.78687L23.217 12.2465L28.6116 15.3322C28.8516 15.469 29 15.7244 29 16.001C29 16.2775 28.8516 16.5329 28.6116 16.6698L23.217 19.7554L24.1604 23.2141C24.2336 23.481 24.1575 23.7663 23.9619 23.9619C23.7663 24.1575 23.481 24.2336 23.2141 24.1604L19.7554 23.2179L16.6698 28.6136C16.5329 28.8535 16.2775 29.0019 16.001 29.0019V29.0029ZM12.6194 21.5479C12.8912 21.5479 13.1485 21.6915 13.2882 21.9362L16.001 26.6795L18.7137 21.9362C18.8881 21.6308 19.2466 21.4833 19.5858 21.5749L22.3188 22.3198L21.5729 19.5858C21.4804 19.2466 21.6288 18.8881 21.9343 18.7137L26.6775 16.001L21.9343 13.2882C21.6288 13.1138 21.4804 12.7553 21.5729 12.4161L22.3188 9.68213L19.5858 10.4271C19.2466 10.5196 18.8881 10.3712 18.7137 10.0657L16.001 5.32246L13.2882 10.0657C13.1138 10.3712 12.7553 10.5196 12.4161 10.4271L9.68213 9.68213L10.4271 12.4161C10.5196 12.7553 10.3712 13.1138 10.0657 13.2882L5.32246 16.001L10.0657 18.7137C10.3702 18.8881 10.5196 19.2466 10.4271 19.5858L9.68213 22.3198L12.4161 21.5749C12.4835 21.5566 12.552 21.5479 12.6185 21.5479H12.6194ZM16.001 20.8849C15.7523 20.8849 15.5191 20.7654 15.3746 20.563L13.8153 18.3899C13.7594 18.3138 13.6891 18.2434 13.6091 18.1856L11.4389 16.6283C11.2375 16.4838 11.118 16.2505 11.118 16.0019C11.118 15.7533 11.2375 15.5201 11.4389 15.3755L13.611 13.8163C13.6881 13.7604 13.7585 13.6901 13.8202 13.6062L15.3746 11.4399C15.5191 11.2385 15.7523 11.118 16.001 11.118C16.2496 11.118 16.4828 11.2375 16.6274 11.4399L18.1866 13.613C18.2425 13.6901 18.3128 13.7604 18.3918 13.8173L20.562 15.3746C20.7635 15.5191 20.8839 15.7523 20.8839 16.001C20.8839 16.2496 20.7644 16.4828 20.562 16.6273L18.3909 18.1856C18.3119 18.2434 18.2425 18.3128 18.1846 18.3918L16.6274 20.562C16.4828 20.7635 16.2496 20.8839 16.001 20.8839V20.8849ZM13.2111 16.0019L14.5111 16.9348C14.7241 17.089 14.9101 17.274 15.0643 17.486L16.001 18.7918L16.9338 17.4918C17.0899 17.2769 17.2749 17.0909 17.4879 16.9367C17.4879 16.9367 17.4898 16.9357 17.4908 16.9348L18.7908 16.0019L17.4908 15.0691C17.2778 14.9149 17.0928 14.7299 16.9377 14.5169L16.0019 13.2121L15.0691 14.5121C14.9082 14.7318 14.7231 14.9159 14.514 15.0672L13.2121 16.0019H13.2111Z" fill="black"/>
</g>
</g>
</svg>
