<svg width="32" height="32" viewBox="0 0 32 32" fill="none" xmlns="http://www.w3.org/2000/svg">
<g id="fight">
<g id="Group">
<path id="Vector" d="M24.6346 6.24454C23.8537 6.13365 23.1234 6.2885 22.5375 6.64982C22.4753 6.48733 22.3998 6.32865 22.3119 6.17571C21.9257 5.49991 21.3178 4.98661 20.6028 4.72757C19.9404 4.48956 19.2263 4.49147 18.5907 4.73426C18.3249 4.83654 18.0764 4.978 17.848 5.1558C17.7113 4.86808 17.5287 4.60139 17.3069 4.36625C16.7286 3.7564 15.9515 3.42185 15.1189 3.42185H15.1075C14.3323 3.42185 13.6173 3.71052 13.0762 4.1961C12.865 3.90552 12.5964 3.65699 12.2771 3.46008C11.326 2.87509 10.071 2.84545 9.08071 3.38552C8.11337 3.91221 7.54462 4.90058 7.51786 6.09733V9.03472C7.41175 9.07009 7.31235 9.12935 7.22919 9.2106C3.94864 12.3889 3.08262 17.3852 5.02303 21.9399C6.89081 26.3255 10.7755 29 15.2241 29C15.3522 29 15.4812 28.9981 15.6103 28.9933H15.616C18.7082 28.9933 21.6198 27.786 23.8164 25.5933C26.0273 23.3862 27.2451 20.4564 27.2451 17.3451V9.21729C27.2843 7.69172 26.2118 6.47012 24.6346 6.24454ZM25.7157 9.20773V17.3451C25.7157 20.0473 24.6576 22.5928 22.7363 24.5103C20.8274 26.4153 18.3001 27.4639 15.616 27.4639H15.5988C15.5892 27.4649 15.5797 27.4639 15.5701 27.4649C10.829 27.6379 7.73866 24.4128 6.43007 21.3406C5.03833 18.0734 5.28877 14.5597 6.99691 11.8947V15.7402C6.99691 16.306 7.45668 16.7658 8.0216 16.7658C8.58652 16.7658 9.04725 16.306 9.04725 15.7402V6.12218C9.06732 5.30396 9.47357 4.91301 9.81195 4.72853C10.3224 4.45037 10.9905 4.4647 11.4761 4.76293C11.9024 5.02484 12.1185 5.46837 12.1003 6.04667C12.0879 6.44718 12.388 6.79034 12.7876 6.83048C13.1862 6.87063 13.5494 6.59629 13.6182 6.20056C13.7444 5.47601 14.3705 4.95124 15.1103 4.95124H15.1161C15.5271 4.95124 15.9104 5.11661 16.1962 5.41866C16.4878 5.7255 16.6407 6.14417 16.6168 6.56571C16.5939 6.96239 16.8787 7.31033 17.2725 7.36577C17.3327 7.37437 17.3911 7.38584 17.4532 7.39732C17.7801 7.45754 18.108 7.29981 18.2657 7.00732C18.6872 6.22255 19.3668 5.90807 20.0837 6.16711C20.7748 6.41564 21.4134 7.20423 21.182 8.34649C21.1209 8.65046 21.2499 8.96207 21.508 9.13413C21.5176 9.14082 21.5271 9.14752 21.5357 9.15421C21.5577 9.1695 21.5797 9.18479 21.6007 9.19913C21.8072 9.33582 22.0662 9.36545 22.2975 9.27655C22.5279 9.18861 22.7028 8.99362 22.765 8.75465C22.9925 7.87812 23.7983 7.67069 24.4186 7.75863C25.0342 7.84657 25.7425 8.27289 25.7167 9.18479C25.7157 9.19244 25.7157 9.20009 25.7157 9.20773Z" fill="black"/>
<path id="Vector_2" opacity="0.2" d="M25.7167 9.1848C25.7157 9.19244 25.7157 9.20009 25.7157 9.20774V17.3451C25.7157 20.0473 24.6576 22.5928 22.7363 24.5103C20.8274 26.4153 18.3001 27.4639 15.616 27.4639H15.5988C15.5892 27.4649 15.5797 27.4639 15.5701 27.4649C10.829 27.6379 7.73866 24.4128 6.43007 21.3406C5.03832 18.0734 5.28877 14.5597 6.99691 11.8947V15.7402C6.99691 16.306 7.45668 16.7658 8.0216 16.7658C8.58652 16.7658 9.04725 16.306 9.04725 15.7402V6.12218C9.06732 5.30396 9.47357 4.91301 9.81194 4.72853C10.3224 4.45037 10.9905 4.4647 11.4761 4.76294C11.9024 5.02484 12.1185 5.46837 12.1003 6.04667C12.0879 6.44718 12.388 6.79034 12.7876 6.83048C13.1862 6.87063 13.5494 6.59629 13.6182 6.20056C13.7444 5.47601 14.3705 4.95124 15.1103 4.95124H15.1161C15.5271 4.95124 15.9104 5.11661 16.1962 5.41866C16.4878 5.7255 16.6407 6.14417 16.6168 6.56571C16.5939 6.96239 16.8787 7.31033 17.2725 7.36577C17.3327 7.37437 17.3911 7.38584 17.4532 7.39732C17.7801 7.45754 18.108 7.29981 18.2657 7.00732C18.6872 6.22255 19.3668 5.90807 20.0837 6.16711C20.7748 6.41564 21.4134 7.20423 21.182 8.34649C21.1209 8.65046 21.2499 8.96207 21.508 9.13413C21.5176 9.14082 21.5271 9.14752 21.5357 9.15421C21.5577 9.1695 21.5797 9.18479 21.6007 9.19913C21.8072 9.33582 22.0662 9.36545 22.2975 9.27656C22.5279 9.18861 22.7028 8.99362 22.765 8.75465C22.9925 7.87812 23.7983 7.67069 24.4186 7.75863C25.0342 7.84657 25.7425 8.27289 25.7167 9.1848Z" fill="black"/>
</g>
</g>
</svg>
