<svg width="32" height="32" viewBox="0 0 32 32" fill="none" xmlns="http://www.w3.org/2000/svg">
<g id="fire">
<g id="Group">
<path id="Vector" d="M25.5914 17.9167C25.4923 17.4527 25.3609 16.9887 25.1789 16.55C24.9838 16.079 23.778 12.6968 23.0401 12.6968C22.8995 12.6968 22.7752 12.8191 22.6792 13.1082C22.8632 14.4283 22.3305 15.7454 21.2822 16.5662C21.8331 14.2636 22.2314 8.65351 15.3669 3.08693C15.2962 3.02628 15.2153 3 15.1375 3C14.8757 3 14.629 3.29011 14.7857 3.56404C18.0052 10.2152 11.5551 8.68889 9.4334 16.7856C8.71067 16.1952 8.1618 15.4159 7.85249 14.5375C7.80903 14.3545 7.64223 14.2575 7.47646 14.2575C7.33595 14.2575 7.19546 14.3272 7.13279 14.4748C6.91849 14.9742 6.686 15.4543 6.5182 15.9759C6.34838 16.5086 6.22204 17.0544 6.1341 17.6094C5.95821 18.7455 5.95517 19.909 6.126 21.0482C6.30087 22.2147 6.66376 23.3508 7.21263 24.397C7.78577 25.4887 8.56006 26.4712 9.49305 27.2809C10.5362 28.1866 11.7633 28.8618 13.0643 29.3207C13.6425 29.5239 14.8342 29.811 14.8342 29.812C14.8423 29.816 14.8524 29.818 14.8605 29.818C14.8645 29.818 14.8676 29.818 14.8706 29.817C15.469 29.9333 16.0785 30 16.6881 30C17.0893 30 17.4906 29.9717 17.8899 29.908C19.1767 29.7048 20.3978 29.1802 21.4571 28.4282C22.5255 27.668 23.4282 26.6855 24.1307 25.5797C24.8413 24.4567 25.3467 23.2022 25.6075 21.8993C25.8683 20.5872 25.8764 19.2257 25.5914 17.9167ZM18.6258 27.2607C17.9839 27.5245 17.4007 27.6589 16.8862 27.6589C16.0391 27.6589 15.4053 27.29 14.9484 26.5319C14.6472 26.0325 14.4622 25.4119 14.3965 24.7741C14.5845 24.8266 14.7827 24.8569 14.9879 24.8569C15.9795 24.8569 16.7669 24.1807 16.9943 23.1345C17.0429 22.9121 17.0439 22.6827 16.9974 22.4603C16.7669 21.3565 16.7982 20.4215 16.9832 19.6361C17.3532 20.2284 17.7656 20.7793 18.1598 21.3049C18.9109 22.3046 19.6194 23.2497 19.7822 24.1767C19.9823 25.3199 19.2788 26.4409 18.6258 27.2607ZM24.0216 21.5819C23.8022 22.6786 23.3675 23.7622 22.7661 24.7124C22.2253 25.5635 21.5491 26.3135 20.7991 26.9008C23.3453 22.1257 17.4199 20.0444 17.3875 15.8556C16.2756 16.9038 14.6502 19.1377 15.4134 22.7908C15.3437 23.1123 15.186 23.2396 14.9879 23.2396C14.3955 23.2396 13.4393 22.1055 13.3635 21.5859C12.3981 23.4145 12.567 26.2337 13.9417 27.9025C13.8022 27.8611 13.6869 27.8257 13.602 27.7954C12.4295 27.382 11.4045 26.7987 10.5534 26.0598C9.77203 25.3826 9.13016 24.5699 8.64497 23.645C8.18606 22.7726 7.87675 21.8174 7.72513 20.8086C7.57856 19.8291 7.58057 18.8365 7.7322 17.859C7.75241 17.7297 7.77567 17.6013 7.80094 17.4739C7.99097 17.6731 8.19414 17.8621 8.40944 18.038C8.70258 18.2775 9.06546 18.4029 9.4334 18.4029C9.6012 18.4029 9.77001 18.3766 9.93376 18.324C10.4574 18.1532 10.8577 17.7286 10.9971 17.1959C11.8179 14.0654 13.3412 12.6109 14.6856 11.3271C15.6904 10.3689 16.6385 9.46318 17.0681 8.09554C17.1571 7.8115 17.2187 7.51937 17.2531 7.21815C18.3549 8.58983 19.1251 10.0212 19.5517 11.499C20.1309 13.5024 19.957 15.1551 19.7094 16.1892C19.5487 16.8583 19.8297 17.5548 20.4079 17.9268C20.6747 18.0986 20.979 18.1835 21.2822 18.1835C21.635 18.1835 21.9868 18.0683 22.2789 17.8398C22.7419 17.477 23.1351 17.0453 23.4494 16.5662C23.4848 16.6552 23.5202 16.7482 23.5576 16.8432C23.6132 16.9877 23.6536 17.0918 23.685 17.1687C23.8133 17.479 23.9215 17.8439 24.0094 18.2533C24.0094 18.2563 24.0104 18.2583 24.0104 18.2613C24.2409 19.3136 24.2439 20.4629 24.0216 21.5819Z" fill="black"/>
<path id="Vector_2" opacity="0.2" d="M24.0216 21.5819C23.8022 22.6786 23.3676 23.7622 22.7661 24.7124C22.2253 25.5635 21.5491 26.3135 20.7991 26.9008C23.3453 22.1257 17.4199 20.0444 17.3876 15.8556C16.2757 16.9038 14.6503 19.1377 15.4134 22.7908C15.3437 23.1123 15.186 23.2396 14.9879 23.2396C14.3955 23.2396 13.4393 22.1055 13.3635 21.5859C12.3981 23.4145 12.567 26.2337 13.9417 27.9025C13.8022 27.8611 13.6869 27.8257 13.602 27.7954C12.4295 27.382 11.4045 26.7987 10.5534 26.0598C9.77204 25.3826 9.13017 24.5699 8.64498 23.645C8.18607 22.7726 7.87676 21.8174 7.72513 20.8086C7.57857 19.8291 7.58058 18.8365 7.7322 17.859C7.75242 17.7297 7.77567 17.6013 7.80095 17.4739C7.99098 17.6731 8.19414 17.8621 8.40945 18.038C8.70259 18.2775 9.06547 18.4029 9.43341 18.4029C9.60121 18.4029 9.77002 18.3766 9.93377 18.324C10.4574 18.1532 10.8577 17.7286 10.9972 17.1959C11.8179 14.0654 13.3412 12.6109 14.6856 11.3271C15.6904 10.3689 16.6385 9.46317 17.0681 8.09553C17.1571 7.81149 17.2188 7.51937 17.2531 7.21814C18.3549 8.58983 19.1252 10.0211 19.5517 11.499C20.1309 13.5024 19.9571 15.1551 19.7094 16.1892C19.5487 16.8583 19.8297 17.5548 20.4079 17.9268C20.6747 18.0986 20.979 18.1835 21.2822 18.1835C21.635 18.1835 21.9868 18.0683 22.2789 17.8398C22.7419 17.477 23.1351 17.0453 23.4494 16.5662C23.4848 16.6552 23.5202 16.7482 23.5576 16.8432C23.6132 16.9877 23.6536 17.0918 23.685 17.1687C23.8133 17.479 23.9215 17.8439 24.0094 18.2533C24.0094 18.2563 24.0104 18.2583 24.0104 18.2613C24.2409 19.3136 24.2439 20.4629 24.0216 21.5819Z" fill="black"/>
</g>
</g>
</svg>
