<svg width="32" height="32" viewBox="0 0 32 32" fill="none" xmlns="http://www.w3.org/2000/svg">
<g id="flying">
<g id="Group">
<path id="Vector" d="M12.1326 7C7.63049 7 3.46641 10.2916 3.03908 14.7727C2.57816 19.6151 6.25401 23.797 10.8937 24.2663C11.341 24.3115 11.7494 24.0028 11.8271 23.5608C12.182 21.5375 13.947 20.0004 16.071 20.0004C18.4512 20.0004 20.381 17.9992 20.381 15.619C22.7612 15.619 24.69 13.6902 24.69 11.31C27.0702 11.31 29 9.38022 29 7H12.1326ZM24.69 9.63011C24.0695 9.63011 23.5277 9.96819 23.2369 10.4701H14.6C14.1359 10.4701 13.7601 10.8459 13.7601 11.31C13.7601 11.7741 14.1359 12.15 14.6 12.15H22.8725C22.5208 13.1894 21.537 13.9391 20.381 13.9391C19.7594 13.9391 19.2187 14.2782 18.9279 14.779H11.7767C11.3126 14.779 10.9368 15.1549 10.9368 15.619C10.9368 16.0831 11.3126 16.4589 11.7767 16.4589H18.5646C18.2118 17.5278 17.2133 18.3205 16.071 18.3205C13.4041 18.3205 11.1383 20.0728 10.3656 22.4877C8.90512 22.1853 7.55069 21.4178 6.5165 20.2807C5.16522 18.7951 4.52475 16.8957 4.71164 14.9323C4.87334 13.2409 5.73324 11.6649 7.13387 10.4953C8.53764 9.32457 10.312 8.67991 12.1326 8.67991H26.7122C26.2292 9.26053 25.5026 9.63011 24.69 9.63011Z" fill="black"/>
<path id="Vector_2" opacity="0.2" d="M26.7122 8.67992C26.2292 9.26054 25.5026 9.63011 24.69 9.63011C24.0695 9.63011 23.5277 9.9682 23.2369 10.4701H14.6C14.1359 10.4701 13.7601 10.8459 13.7601 11.31C13.7601 11.7741 14.1359 12.15 14.6 12.15H22.8725C22.5208 13.1894 21.537 13.9391 20.381 13.9391C19.7594 13.9391 19.2187 14.2782 18.9279 14.779H11.7767C11.3126 14.779 10.9368 15.1549 10.9368 15.619C10.9368 16.0831 11.3126 16.459 11.7767 16.459H18.5646C18.2118 17.5278 17.2133 18.3205 16.071 18.3205C13.4041 18.3205 11.1383 20.0729 10.3656 22.4877C8.90512 22.1853 7.55069 21.4178 6.5165 20.2807C5.16522 18.7951 4.52475 16.8957 4.71164 14.9323C4.87333 13.2409 5.73324 11.6649 7.13386 10.4953C8.53764 9.32458 10.312 8.67992 12.1326 8.67992H26.7122Z" fill="black"/>
</g>
</g>
</svg>
