<svg width="32" height="32" viewBox="0 0 32 32" fill="none" xmlns="http://www.w3.org/2000/svg">
<g id="ghost">
<g id="Group">
<path id="Vector" d="M25.4933 24.8799C27.6689 22.5564 29 19.431 29 15.9983C29 8.82125 23.1787 3 15.9983 3C8.8179 3 3 8.82125 3 15.9983C3 23.1754 8.82127 29 15.9983 29H16.0847C16.9818 29 24.6915 28.9473 28.0423 27.1912C28.0423 27.1912 26.3591 26.0204 25.4933 24.8799ZM16.0847 27.2057H15.9983C9.82045 27.2057 4.79426 22.1784 4.79426 15.9983C4.79426 9.81819 9.82045 4.79426 15.9983 4.79426C22.1762 4.79426 27.2057 9.82044 27.2057 15.9983C27.2057 18.8534 26.1325 21.5717 24.1835 23.6531C23.5858 24.2923 23.5353 25.2679 24.0647 25.9654C24.1925 26.1337 24.3327 26.3008 24.4807 26.4656C21.7052 27.033 18.0886 27.2057 16.0847 27.2057Z" fill="black"/>
<path id="Vector_2" opacity="0.2" d="M24.1835 23.6531C26.1325 21.5717 27.2057 18.8534 27.2057 15.9983C27.2057 9.82044 22.1784 4.79427 15.9983 4.79427C9.81821 4.79427 4.79427 9.82044 4.79427 15.9983C4.79427 22.1762 9.82045 27.2057 15.9983 27.2057H16.0847C18.0886 27.2057 21.7052 27.033 24.4807 26.4656C24.3327 26.3008 24.1925 26.1337 24.0647 25.9654C23.5353 25.2679 23.5858 24.2923 24.1835 23.6531ZM9.35394 13.6265C9.35394 13.428 9.3831 13.2329 9.43805 13.0479C10.1255 14.1099 11.322 14.8107 12.6587 14.8107C12.7956 14.8107 12.9301 14.804 13.0647 14.7894C12.6958 15.3187 12.0812 15.6653 11.3882 15.6653C10.2668 15.6653 9.35394 14.7502 9.35394 13.6265ZM18.932 14.7894C19.0665 14.804 19.2011 14.8107 19.3379 14.8107C20.6769 14.8107 21.8734 14.1087 22.5608 13.0445C22.6169 13.2318 22.6461 13.4269 22.6461 13.6265C22.6461 14.7502 21.7321 15.6653 20.6085 15.6653C19.9154 15.6653 19.3009 15.3187 18.932 14.7894Z" fill="black"/>
<path id="Vector_3" d="M15.2077 13.3047C15.1741 12.9907 14.9778 12.7182 14.6908 12.5859C14.4037 12.4535 14.0695 12.4827 13.8093 12.661C13.4695 12.8931 13.0725 13.0165 12.6587 13.0165C11.599 13.0165 10.7064 12.1889 10.6256 11.1314C10.601 10.8107 10.4069 10.5281 10.1165 10.3901C9.82605 10.2511 9.48402 10.2791 9.22049 10.4619C8.17981 11.1818 7.55968 12.3649 7.55968 13.6265C7.55968 15.7404 9.27769 17.4595 11.3882 17.4595C13.4987 17.4595 15.2245 15.7404 15.2245 13.6265C15.2245 13.5144 15.2189 13.4056 15.2077 13.3047ZM11.3882 15.6653C10.2668 15.6653 9.35394 14.7502 9.35394 13.6265C9.35394 13.428 9.3831 13.2329 9.43805 13.0479C10.1255 14.1099 11.322 14.8107 12.6587 14.8107C12.7956 14.8107 12.9301 14.804 13.0647 14.7894C12.6958 15.3187 12.0812 15.6653 11.3882 15.6653Z" fill="black"/>
<path id="Vector_4" d="M22.7762 10.4619C22.5115 10.2791 22.1683 10.2511 21.879 10.3901C21.5886 10.5281 21.3946 10.8118 21.3699 11.1325C21.2903 12.1889 20.3976 13.0165 19.3379 13.0165C18.9241 13.0165 18.5271 12.8931 18.1873 12.661C17.9272 12.4827 17.5919 12.4535 17.3048 12.5859C17.0177 12.7182 16.8214 12.9918 16.7878 13.3058C16.7777 13.4067 16.7721 13.5144 16.7721 13.6265C16.7721 15.7404 18.4935 17.4595 20.6085 17.4595C22.7235 17.4595 24.4403 15.7404 24.4403 13.6265C24.4403 12.3672 23.818 11.1841 22.7762 10.4619ZM20.6085 15.6653C19.9154 15.6653 19.3009 15.3187 18.932 14.7894C19.0665 14.804 19.2011 14.8107 19.3379 14.8107C20.6769 14.8107 21.8734 14.1087 22.5609 13.0445C22.6169 13.2318 22.6461 13.4269 22.6461 13.6265C22.6461 14.7502 21.7321 15.6653 20.6085 15.6653Z" fill="black"/>
</g>
</g>
</svg>
