<svg width="32" height="32" viewBox="0 0 32 32" fill="none" xmlns="http://www.w3.org/2000/svg">
<g id="grass">
<g id="Group">
<path id="Vector" d="M28.8547 4.74051C28.8012 3.88491 28.1146 3.19829 27.2579 3.14268C25.2996 3.01541 21.4195 2.86033 17.4377 3.23572C12.3084 3.71914 8.74378 4.92768 6.84327 6.82818C1.96849 11.703 1.69684 19.5317 6.22404 24.6503C6.40371 24.8535 6.62831 25.0097 6.87857 25.1081C6.97589 25.3573 7.13204 25.5829 7.33525 25.7637C9.68922 27.8503 12.7287 29 15.8945 29C17.5971 29 19.2591 28.6749 20.8334 28.0342C22.4623 27.3722 23.92 26.4033 25.1692 25.1541C27.0697 23.2536 28.2782 19.69 28.7627 14.5607C29.1381 10.5725 28.9819 6.69663 28.8547 4.74051ZM23.9585 23.9445C22.8719 25.0311 21.6045 25.8739 20.1896 26.4492C18.8195 27.0065 17.3746 27.2888 15.8945 27.2888C13.2924 27.2888 10.7887 26.3947 8.79725 24.7616L10.948 22.6097L11.0753 22.4825L11.256 22.4846L17.7479 22.5648H17.7597C18.0281 22.5648 18.2773 22.4643 18.4613 22.2803C18.673 22.0675 18.7746 21.7648 18.7383 21.4504C18.6698 20.8825 18.1704 20.4301 17.6025 20.4237L14.2036 20.382L13.1876 20.3702L13.9063 19.6515L15.8763 17.6825L16.0035 17.5553L16.1843 17.5574L22.6762 17.6366H22.6869C22.9564 17.6366 23.2056 17.536 23.3874 17.3531C23.6013 17.1392 23.7029 16.8366 23.6655 16.5232C23.5981 15.9542 23.0986 15.5029 22.5307 15.4954L19.1318 15.4548L18.1158 15.443L18.8345 14.7243L22.5927 10.9661C23.0131 10.5458 23.0024 9.85166 22.5692 9.41851C22.3617 9.21103 22.0879 9.09338 21.7992 9.0859H21.7767C21.4901 9.0859 21.2216 9.19606 21.0216 9.39605L17.3319 13.0858L16.5993 13.8174L16.6014 12.7832L16.6057 9.5907C16.6057 9.03242 16.1511 8.51906 15.5918 8.44419H15.5843L15.5779 8.44206L15.5693 8.43992C15.5298 8.43564 15.4902 8.4335 15.4506 8.4335C15.2046 8.4335 14.9704 8.52013 14.7918 8.67628C14.5822 8.86024 14.4624 9.13082 14.4624 9.41744L14.4528 15.7885V15.9649L14.3276 16.0901L12.4036 18.0141L11.671 18.7456L11.6731 17.7114L11.6774 14.519C11.6774 13.9532 11.2346 13.4505 10.6689 13.3714C10.6614 13.3714 10.6539 13.3703 10.6464 13.3692C10.6058 13.3639 10.5641 13.3618 10.5234 13.3618C10.2764 13.3618 10.0432 13.4473 9.86461 13.6035C9.65499 13.7874 9.53414 14.058 9.53414 14.3468L9.52558 20.7157V20.8921L9.40045 21.0172L7.22723 23.1894C3.59093 18.7446 3.92033 12.1725 8.05395 8.03886C11.1149 4.97688 19.9243 4.38437 27.1467 4.84746V4.85067C27.6162 12.0719 27.0237 20.8793 23.9585 23.9445Z" fill="black"/>
<path id="Vector_2" opacity="0.2" d="M23.9585 23.9445C22.8719 25.0311 21.6045 25.8738 20.1896 26.4492C18.8196 27.0064 17.3747 27.2888 15.8945 27.2888C13.2924 27.2888 10.7887 26.3947 8.79726 24.7616L10.948 22.6097L11.0753 22.4825L11.256 22.4846L17.7479 22.5648H17.7597C18.0281 22.5648 18.2773 22.4643 18.4613 22.2803C18.673 22.0675 18.7746 21.7648 18.7383 21.4504C18.6698 20.8825 18.1704 20.4301 17.6025 20.4237L14.2036 20.382L13.1876 20.3702L13.9063 19.6515L15.8763 17.6825L16.0036 17.5553L16.1843 17.5574L22.6762 17.6365H22.6869C22.9564 17.6365 23.2056 17.536 23.3874 17.3531C23.6013 17.1392 23.7029 16.8366 23.6655 16.5232C23.5981 15.9542 23.0986 15.5029 22.5307 15.4954L19.1318 15.4548L18.1158 15.443L18.8345 14.7243L22.5927 10.9661C23.0131 10.5458 23.0024 9.85165 22.5692 9.41851C22.3617 9.21102 22.0879 9.09337 21.7992 9.08589H21.7767C21.4901 9.08589 21.2216 9.19605 21.0217 9.39605L17.3319 13.0858L16.5993 13.8174L16.6014 12.7832L16.6057 9.5907C16.6057 9.03242 16.1511 8.51905 15.5918 8.44419H15.5843L15.5779 8.44205L15.5693 8.43991C15.5298 8.43563 15.4902 8.43349 15.4506 8.43349C15.2046 8.43349 14.9704 8.52013 14.7918 8.67627C14.5822 8.86023 14.4624 9.13081 14.4624 9.41744L14.4528 15.7884V15.9649L14.3277 16.0901L12.4036 18.0141L11.671 18.7456L11.6731 17.7114L11.6774 14.5189C11.6774 13.9532 11.2347 13.4505 10.6689 13.3714C10.6614 13.3714 10.6539 13.3703 10.6464 13.3692C10.6058 13.3639 10.5641 13.3618 10.5234 13.3618C10.2764 13.3618 10.0432 13.4473 9.86462 13.6035C9.655 13.7874 9.53415 14.058 9.53415 14.3468L9.52559 20.7156V20.8921L9.40046 21.0172L7.22723 23.1894C3.59093 18.7446 3.92034 12.1725 8.05396 8.03885C11.1149 4.97687 19.9243 4.38436 27.1467 4.84745V4.85067C27.6162 12.0719 27.0237 20.8793 23.9585 23.9445Z" fill="black"/>
</g>
</g>
</svg>
