<svg width="32" height="32" viewBox="0 0 32 32" fill="none" xmlns="http://www.w3.org/2000/svg">
<g id="ground">
<g id="Group">
<path id="Vector" d="M28.9674 24.3804L22.3448 6.34333C22.2694 6.13712 22.0737 6 21.8539 6H15.8154C15.5976 6 15.4019 6.13503 15.3255 6.33914L8.55429 24.3772C8.42554 24.7185 8.67885 25.0838 9.04415 25.0838H28.4765C28.8397 25.0838 29.093 24.7216 28.9674 24.3804ZM10.7063 23.409L16.613 7.67475H21.05L26.8268 23.409H10.7063Z" fill="black"/>
<path id="Vector_2" opacity="0.2" d="M26.8269 23.409H10.7064L16.613 7.67474H21.05L26.8269 23.409Z" fill="black"/>
<path id="Vector_3" d="M11.6715 13.2475L7.35481 24.7446C7.27735 24.9487 7.08266 25.0838 6.8639 25.0838H3.52383C3.15852 25.0838 2.90522 24.7184 3.03396 24.3772L7.35062 12.8801C7.42808 12.676 7.62277 12.5409 7.84153 12.5409H11.1816C11.5469 12.5409 11.8002 12.9062 11.6715 13.2475Z" fill="black"/>
</g>
</g>
</svg>
