<svg width="32" height="32" viewBox="0 0 32 32" fill="none" xmlns="http://www.w3.org/2000/svg">
<g id="hp">
<g id="Group">
<path id="Vector" d="M23.3439 4.46763C22.2901 3.41383 20.9947 2.91 19.5924 3.01319C18.3116 3.10789 17.0405 3.72462 16.0146 4.75171L15.5484 5.21792L15.0822 4.75293C14.06 3.72826 12.7889 3.11274 11.5032 3.01925C10.0998 2.91606 8.80314 3.41626 7.75177 4.46763C6.81573 5.40366 6.29977 6.65535 6.29977 7.9896C6.29977 9.32384 6.81574 10.5755 7.75298 11.5128L14.678 18.4365C14.911 18.6684 15.2194 18.7971 15.5484 18.7971C15.8774 18.7971 16.1858 18.6684 16.4189 18.4365L23.3439 11.5128C25.2864 9.5703 25.2864 6.41011 23.3439 4.46763ZM22.2998 10.4699L15.5484 17.2213L8.79587 10.4699C8.13785 9.81067 7.77486 8.93049 7.77486 7.9896C7.77486 7.04871 8.13785 6.1673 8.79587 5.51049C9.46845 4.83669 10.2843 4.48098 11.1523 4.48098C11.2337 4.48098 11.3126 4.48342 11.3951 4.48949C12.3275 4.55869 13.2672 5.02124 14.0394 5.79459L14.6804 6.4356C15.1599 6.9103 15.9394 6.9103 16.4189 6.4356L17.0575 5.79579C17.8345 5.0188 18.773 4.55383 19.7017 4.48584C20.6608 4.41421 21.5592 4.76992 22.2998 5.51171C23.6668 6.87873 23.6668 9.10288 22.2998 10.4711V10.4699Z" fill="black"/>
<path id="Vector_2" opacity="0.2" d="M22.2998 10.4699L15.5484 17.2213L8.79587 10.4699C8.13785 9.81066 7.77486 8.93048 7.77486 7.98958C7.77486 7.04869 8.13785 6.16728 8.79587 5.51048C9.46845 4.83668 10.2843 4.48097 11.1523 4.48097C11.2337 4.48097 11.3126 4.4834 11.3951 4.48947C12.3275 4.55867 13.2672 5.02123 14.0394 5.79458L14.6804 6.43559C15.1599 6.91028 15.9394 6.91028 16.4189 6.43559L17.0575 5.79578C17.8345 5.01879 18.773 4.55382 19.7017 4.48583C20.6608 4.4142 21.5592 4.76991 22.2998 5.5117C23.6668 6.87872 23.6668 9.10286 22.2998 10.4711V10.4699Z" fill="black"/>
<path id="Vector_3" d="M25.8739 10.2089C25.2754 10.0911 24.4474 10.3958 24.0832 11.639L23.0658 15.1173C22.7793 15.1829 22.5025 15.3346 22.2536 15.5653C21.9489 15.8506 21.6405 16.1274 21.3431 16.3945L21.32 16.4151C19.2865 18.2399 17.3646 19.9626 17.3112 23.4372V25.1162C16.8086 25.1648 16.4153 25.5873 16.4153 26.1008V28.0118C16.4153 28.5569 16.8596 29 17.4047 29H22.5122C23.0573 29 23.5017 28.5569 23.5017 28.0118V26.1008C23.5017 25.5946 23.1205 25.1769 22.6288 25.1187L22.6312 24.9451C22.6349 24.7411 22.7053 24.5796 22.851 24.4388L24.734 22.6335C25.6858 21.7205 26.2139 20.6388 26.3474 19.3276L27.0892 12.0882C27.1815 11.1862 26.6473 10.3606 25.8739 10.2089ZM22.0254 27.5237H17.8903V26.5865H22.0254V27.5237ZM25.6214 11.9377L24.8796 19.1783C24.7825 20.1265 24.4013 20.9083 23.7129 21.5676L21.8287 23.3753C21.3989 23.7893 21.1659 24.3247 21.1561 24.922L21.1537 25.1114H18.7851V23.4445C18.8312 20.6291 20.2869 19.3216 22.3046 17.5114C22.6276 17.2225 22.9444 16.9384 23.2601 16.6434C23.2698 16.6337 23.2795 16.6252 23.2892 16.6179C23.2722 16.6482 23.2467 16.6834 23.2091 16.7247L20.6268 19.5316C20.4933 19.6761 20.424 19.8655 20.4325 20.0621C20.441 20.2588 20.5248 20.4409 20.6705 20.5745C20.9692 20.8489 21.4366 20.8294 21.7122 20.5308L24.2957 17.7239C24.9768 16.9833 24.8979 16.1177 24.4632 15.5908L25.4988 12.053C25.5365 11.9268 25.5765 11.8345 25.6117 11.7689C25.6226 11.8151 25.6287 11.8709 25.6214 11.9377Z" fill="black"/>
<path id="Vector_4" opacity="0.2" d="M25.6214 11.9377L24.8796 19.1783C24.7825 20.1265 24.4013 20.9083 23.7129 21.5676L21.8287 23.3753C21.3989 23.7893 21.1658 24.3247 21.1561 24.922L21.1537 25.1114H18.7851V23.4445C18.8312 20.6291 20.2869 19.3216 22.3046 17.5114C22.6276 17.2225 22.9444 16.9384 23.2601 16.6434C23.2698 16.6337 23.2795 16.6252 23.2892 16.6179C23.2722 16.6482 23.2467 16.6834 23.2091 16.7247L20.6268 19.5316C20.4933 19.6761 20.424 19.8655 20.4325 20.0621C20.441 20.2588 20.5248 20.4409 20.6705 20.5745C20.9692 20.8489 21.4366 20.8294 21.7122 20.5308L24.2957 17.7239C24.9767 16.9833 24.8978 16.1177 24.4632 15.5908L25.4988 12.053C25.5364 11.9268 25.5765 11.8345 25.6117 11.769C25.6226 11.8151 25.6287 11.8709 25.6214 11.9377Z" fill="black"/>
<path id="Vector_5" d="M13.7905 25.1162V23.4251C13.7358 19.9614 11.814 18.2374 9.77197 16.4066C9.46967 16.1359 9.15643 15.8542 8.84564 15.5653C8.59918 15.3346 8.32239 15.1828 8.03587 15.1173L7.01608 11.639C6.65429 10.397 5.82749 10.0923 5.22897 10.2089C4.4544 10.3594 3.91903 11.185 4.01008 12.0882L4.75428 19.3276C4.88783 20.64 5.41594 21.7205 6.36776 22.6335L8.24955 24.4376C8.39645 24.5796 8.46687 24.7411 8.4693 24.9438L8.47173 25.1187C7.98125 25.1757 7.60001 25.5946 7.60001 26.1008V28.0105C7.60001 28.5557 8.04316 28.9988 8.58827 28.9988H13.6958C14.2421 28.9988 14.6865 28.5557 14.6865 28.0105V26.1008C14.6865 25.5873 14.2919 25.1636 13.7905 25.1162ZM7.38877 21.5688C6.7004 20.9095 6.31921 20.1277 6.22208 19.1771L5.47785 11.9389C5.47178 11.8733 5.47786 11.8163 5.48879 11.7702C5.524 11.8357 5.56405 11.928 5.60047 12.0542L6.63606 15.5908C6.20507 16.1177 6.12617 16.9772 6.79997 17.7214L9.38467 20.5672C9.517 20.7129 9.69792 20.7991 9.89459 20.8088C10.0901 20.8185 10.2806 20.7493 10.4263 20.617C10.572 20.4846 10.6582 20.3037 10.6667 20.107C10.6764 19.9104 10.6085 19.721 10.4761 19.5753L7.89141 16.7296C7.85377 16.6883 7.82947 16.6506 7.81247 16.6203C7.82097 16.6276 7.82947 16.6349 7.83796 16.6434C8.16333 16.9469 8.48385 17.2334 8.79222 17.5102C10.8112 19.3204 12.2693 20.6279 12.3142 23.4396V25.1114H9.94679V24.922C9.93586 24.3247 9.70276 23.7893 9.27177 23.3741L7.38877 21.5688ZM13.2114 27.5237H9.07511V26.5864H13.2114V27.5237Z" fill="black"/>
<path id="Vector_6" opacity="0.2" d="M12.3142 23.4396V25.1114H9.94679V24.922C9.93586 24.3247 9.70275 23.7893 9.27177 23.3741L7.38877 21.5688C6.7004 20.9095 6.3192 20.1277 6.22208 19.1771L5.47785 11.9389C5.47178 11.8734 5.47786 11.8163 5.48879 11.7702C5.52399 11.8357 5.56405 11.928 5.60047 12.0542L6.63606 15.5908C6.20507 16.1177 6.12617 16.9772 6.79997 17.7214L9.38466 20.5672C9.517 20.7129 9.69791 20.7991 9.89459 20.8088C10.0901 20.8185 10.2806 20.7493 10.4263 20.617C10.572 20.4846 10.6582 20.3037 10.6667 20.1071C10.6764 19.9104 10.6085 19.721 10.4761 19.5753L7.8914 16.7296C7.85377 16.6883 7.82947 16.6506 7.81247 16.6203C7.82097 16.6276 7.82946 16.6349 7.83796 16.6434C8.16333 16.9469 8.48385 17.2334 8.79222 17.5102C10.8112 19.3204 12.2693 20.6279 12.3142 23.4396Z" fill="black"/>
</g>
</g>
</svg>
