<svg width="32" height="32" viewBox="0 0 32 32" fill="none" xmlns="http://www.w3.org/2000/svg">
<g id="ice">
<g id="Group">
<path id="Vector" d="M24.1687 9.80708L23.332 4.65015C23.2692 4.26274 22.9343 4 22.5685 4C22.4778 4 22.3841 4.01648 22.2934 4.05049L17.4106 5.90616C17.1107 6.0195 16.9119 6.308 16.9119 6.62844V13.234C16.9119 13.6853 17.2828 14.0089 17.6867 14.0089C17.8155 14.0089 17.9474 13.9759 18.072 13.9038L20.6191 12.4335L23.7916 10.6015C24.0697 10.4408 24.2202 10.1244 24.1687 9.80708ZM19.7948 11.0054L18.5604 11.7184V7.23223L21.8761 5.97313L22.4439 9.47531L19.7948 11.0054Z" fill="black"/>
<path id="Vector_2" opacity="0.2" d="M22.4438 9.47531L19.7948 11.0054L18.5594 11.7184V7.23222L21.8761 5.97313L22.4438 9.47531Z" fill="black"/>
<path id="Vector_3" d="M15.1974 5.90616L10.3114 4.05049C10.2197 4.01648 10.127 4 10.0363 4C9.67053 4 9.33566 4.26274 9.27281 4.65015L8.43616 9.80708C8.38465 10.1244 8.53508 10.4408 8.81328 10.6015L9.63859 11.0775L14.5359 13.9038C14.6605 13.9759 14.7924 14.0089 14.9212 14.0089C15.3251 14.0089 15.696 13.6853 15.696 13.234V6.62844C15.696 6.308 15.4972 6.0195 15.1974 5.90616ZM14.0485 11.7184L10.4639 9.64944L10.162 9.47531L10.7297 5.9721L14.0485 7.23223V11.7184Z" fill="black"/>
<path id="Vector_4" opacity="0.2" d="M14.0485 7.23223V11.7184L10.4639 9.64945L10.162 9.47532L10.7287 5.97211L14.0485 7.23223Z" fill="black"/>
<path id="Vector_5" d="M13.929 14.9558L8.20639 11.6535C8.08687 11.5834 7.95292 11.5494 7.82001 11.5494C7.64587 11.5494 7.47278 11.6081 7.33162 11.7235L3.28438 15.0269C2.90521 15.336 2.90521 15.915 3.28438 16.2252L7.33162 19.5274C7.47278 19.6428 7.64587 19.7016 7.82001 19.7016C7.95292 19.7016 8.08687 19.6676 8.20639 19.5975L9.33359 18.9474L13.929 16.2952C14.4442 15.9975 14.4442 15.2535 13.929 14.9558ZM8.50931 17.5193L7.90552 17.8686L5.15756 15.6255L7.90552 13.3824L11.791 15.6255L8.50931 17.5193Z" fill="black"/>
<path id="Vector_6" opacity="0.2" d="M11.791 15.6255L8.50931 17.5193L7.90449 17.8686L5.15756 15.6255L7.90449 13.3824L11.791 15.6255Z" fill="black"/>
<path id="Vector_7" d="M28.7156 15.0269L24.6684 11.7235C24.5272 11.6081 24.3541 11.5494 24.18 11.5494C24.0471 11.5494 23.9131 11.5834 23.7926 11.6535L18.071 14.9558C17.5558 15.2535 17.5558 15.9975 18.071 16.2952L22.6664 18.9474L23.7926 19.5975C23.9131 19.6676 24.0471 19.7016 24.18 19.7016C24.3541 19.7016 24.5272 19.6428 24.6684 19.5274L28.7156 16.2252C29.0948 15.915 29.0948 15.336 28.7156 15.0269ZM24.0955 17.8686L23.4907 17.5193L20.21 15.6255L24.0955 13.3824L26.8435 15.6255L24.0955 17.8686Z" fill="black"/>
<path id="Vector_8" opacity="0.2" d="M26.8434 15.6255L24.0955 17.8686L23.4896 17.5193L20.209 15.6255L24.0955 13.3824L26.8434 15.6255Z" fill="black"/>
<path id="Vector_9" d="M14.9223 17.2421C14.7935 17.2421 14.6616 17.2751 14.5369 17.3472L10.1115 19.9015L8.81431 20.6495C8.53612 20.8102 8.38568 21.1266 8.4372 21.4439L9.27385 26.6008C9.3367 26.9883 9.67157 27.251 10.0373 27.251C10.128 27.251 10.2207 27.2345 10.3124 27.2005L15.1984 25.3448C15.4982 25.2315 15.6971 24.943 15.6971 24.6226V18.0169C15.6971 17.5657 15.3262 17.2421 14.9223 17.2421ZM14.0485 24.0188L10.7297 25.2779L10.162 21.7757L10.9358 21.3285L14.0485 19.5326V24.0188Z" fill="black"/>
<path id="Vector_10" opacity="0.2" d="M14.0485 19.5326V24.0188L10.7287 25.2779L10.162 21.7757L10.9348 21.3285L14.0485 19.5326Z" fill="black"/>
<path id="Vector_11" d="M23.7916 20.6495L19.9772 18.4476L18.072 17.3472C17.9474 17.2761 17.8155 17.2432 17.6867 17.2432C17.2828 17.2432 16.9119 17.5657 16.9119 18.018V24.6226C16.9119 24.943 17.1107 25.2315 17.4106 25.3448L22.2934 27.1995C22.3841 27.2345 22.4778 27.251 22.5685 27.251C22.9343 27.251 23.2692 26.9883 23.332 26.6008L24.1687 21.4439C24.2202 21.1266 24.0697 20.8103 23.7916 20.6495ZM21.8761 25.2779L18.5604 24.0188V19.5326L19.1529 19.8747L22.4439 21.7757L21.8761 25.2779Z" fill="black"/>
<path id="Vector_12" opacity="0.2" d="M22.4438 21.7757L21.8761 25.2779L18.5594 24.0188V19.5326L19.1518 19.8747L22.4438 21.7757Z" fill="black"/>
</g>
</g>
</svg>
