<svg width="32" height="32" viewBox="0 0 32 32" fill="none" xmlns="http://www.w3.org/2000/svg">
<g id="normal">
<g id="Group">
<path id="Vector" opacity="0.2" d="M16.0017 3.89029C9.32336 3.89029 3.89032 9.32222 3.89032 15.9994C3.89032 22.6767 9.32336 28.1097 16.0017 28.1097C22.68 28.1097 28.1108 22.6778 28.1108 15.9994C28.1108 9.32111 22.6789 3.89029 16.0017 3.89029ZM16.0006 21.8632C12.7688 21.8632 10.138 19.2334 10.138 15.9994C10.138 12.7654 12.7688 10.1368 16.0006 10.1368C19.2324 10.1368 21.8643 12.7677 21.8643 15.9994C21.8643 19.2312 19.2346 21.8632 16.0006 21.8632Z" fill="black"/>
<path id="Vector_2" d="M16.0006 3C8.82032 3 3 8.82032 3 15.9994C3 23.1786 8.82032 29 16.0006 29C23.1808 29 29.0011 23.1797 29.0011 15.9994C29.0011 8.81921 23.1808 3 16.0006 3ZM4.78059 15.9994C4.78059 9.81411 9.81411 4.78059 16.0006 4.78059C22.187 4.78059 27.2205 9.81411 27.2205 15.9994C27.2205 22.1848 22.1881 27.2194 16.0006 27.2194C9.813 27.2194 4.78059 22.187 4.78059 15.9994Z" fill="black"/>
<path id="Vector_3" d="M16.0006 8.35626C11.7794 8.35626 8.35736 11.7783 8.35736 15.9995C8.35736 20.2206 11.7794 23.6438 16.0006 23.6438C20.2217 23.6438 23.6449 20.2217 23.6449 15.9995C23.6449 11.7772 20.2217 8.35626 16.0006 8.35626ZM16.0006 21.8632C12.7688 21.8632 10.138 19.2335 10.138 15.9995C10.138 12.7655 12.7688 10.1369 16.0006 10.1369C19.2323 10.1369 21.8643 12.7677 21.8643 15.9995C21.8643 19.2312 19.2346 21.8632 16.0006 21.8632Z" fill="black"/>
</g>
</g>
</svg>
