<svg width="32" height="32" viewBox="0 0 32 32" fill="none" xmlns="http://www.w3.org/2000/svg">
<g id="poison">
<g id="Group">
<path id="Vector" d="M21.8259 10.3657C20.3366 9.02851 18.2128 8.26123 15.9986 8.26123C13.7843 8.26123 11.6596 9.02851 10.1722 10.3638C9.4579 11.0021 8.26028 12.3528 8.26028 14.2378C8.26028 16.1227 9.45694 17.4725 10.1713 18.1136C11.6635 19.4499 13.7872 20.2172 15.9986 20.2172C18.2099 20.2172 20.3327 19.4499 21.8259 18.1127C22.5402 17.4715 23.7388 16.115 23.7388 14.2378C23.7388 12.3605 22.5393 11.003 21.8259 10.3657ZM20.7977 16.9661C19.5837 18.053 17.8345 18.6768 15.9986 18.6768C14.1627 18.6768 12.4125 18.053 11.1995 16.967C10.6767 16.4972 9.80063 15.5191 9.80063 14.2378C9.80063 12.9564 10.6757 11.9792 11.1995 11.5113C12.4096 10.4244 14.1588 9.80157 15.9986 9.80157C17.8383 9.80157 19.5866 10.4244 20.7987 11.5123C21.3214 11.9802 22.1985 12.9554 22.1985 14.2378C22.1985 15.5201 21.3205 16.4963 20.7977 16.9661Z" fill="white"/>
<path id="Vector_2" d="M28.2298 13.792C28.2298 8.25834 22.753 3.77017 15.9986 3.77017C9.24416 3.77017 3.77017 8.25834 3.77017 13.792C3.77017 16.8409 5.43085 19.5683 8.04943 21.4071C7.90695 21.7315 7.82608 22.0896 7.82608 22.467V25.281C7.82608 26.7405 9.00925 27.9227 10.4678 27.9227C11.9263 27.9227 13.1095 26.7405 13.1095 25.281V25.5448C13.1095 27.0033 14.2917 28.1855 15.7511 28.1855C17.2106 28.1855 18.3928 27.0033 18.3928 25.5448V25.281C18.3928 26.7405 19.575 27.9227 21.0335 27.9227C22.4921 27.9227 23.6752 26.7405 23.6752 25.281V22.467C23.6752 22.1898 23.6329 21.9231 23.553 21.6728C26.3997 19.8369 28.2298 16.9911 28.2298 13.792ZM23.1361 21.0249C22.8444 21.2136 22.7144 21.5727 22.8184 21.9038C22.8762 22.0858 22.9051 22.2754 22.9051 22.467V25.281C22.9051 26.3131 22.0656 27.1526 21.0335 27.1526C20.0015 27.1526 19.163 26.3131 19.163 25.281C19.163 24.8565 18.8174 24.5109 18.3928 24.5109C17.9683 24.5109 17.6227 24.8565 17.6227 25.281V25.5439C17.6227 26.5759 16.7832 27.4154 15.7511 27.4154C14.7191 27.4154 13.8796 26.5759 13.8796 25.5439V25.281C13.8796 24.8565 13.535 24.5109 13.1095 24.5109C12.6839 24.5109 12.3393 24.8565 12.3393 25.281C12.3393 26.3131 11.4998 27.1526 10.4678 27.1526C9.43574 27.1526 8.59626 26.3131 8.59626 25.281V22.467C8.59626 22.2081 8.65017 21.9549 8.75414 21.7171C8.9024 21.3811 8.79265 20.9873 8.49229 20.7765C5.98057 19.0138 4.54034 16.4674 4.54034 13.792C4.54034 8.6906 9.68027 4.54034 15.9986 4.54034C22.3168 4.54034 27.4597 8.6906 27.4597 13.792C27.4597 16.6176 25.8837 19.2535 23.1361 21.0249Z" fill="white"/>
<path id="Vector_3" d="M29 13.792C29 7.84148 23.1669 3 15.9986 3C8.8302 3 3 7.84148 3 13.792C3 16.8043 4.5028 19.6569 7.14449 21.6969C7.08576 21.9481 7.05591 22.2052 7.05591 22.467V25.281C7.05591 27.1622 8.58662 28.6929 10.4678 28.6929C11.4728 28.6929 12.3778 28.2568 13.0026 27.5627C13.6235 28.407 14.6248 28.9557 15.7511 28.9557C16.8775 28.9557 17.8778 28.407 18.4997 27.5627C19.1245 28.2568 20.0294 28.6929 21.0335 28.6929C22.9147 28.6929 24.4454 27.1622 24.4454 25.281V22.467C24.4454 22.3168 24.4358 22.1676 24.4165 22.0194C27.3364 19.964 29 16.9911 29 13.792ZM23.1361 21.0249C22.8444 21.2136 22.7144 21.5727 22.8184 21.9038C22.8762 22.0858 22.9051 22.2754 22.9051 22.467V25.281C22.9051 26.3131 22.0656 27.1526 21.0335 27.1526C20.0015 27.1526 19.163 26.3131 19.163 25.281C19.163 24.8565 18.8174 24.5109 18.3928 24.5109C17.9683 24.5109 17.6227 24.8565 17.6227 25.281V25.5439C17.6227 26.5759 16.7832 27.4154 15.7511 27.4154C14.7191 27.4154 13.8796 26.5759 13.8796 25.5439V25.281C13.8796 24.8565 13.535 24.5109 13.1095 24.5109C12.6839 24.5109 12.3393 24.8565 12.3393 25.281C12.3393 26.3131 11.4998 27.1526 10.4678 27.1526C9.43574 27.1526 8.59625 26.3131 8.59625 25.281V22.467C8.59625 22.2081 8.65017 21.9549 8.75414 21.7171C8.9024 21.3811 8.79265 20.9873 8.49229 20.7765C5.98057 19.0138 4.54034 16.4674 4.54034 13.792C4.54034 8.6906 9.68027 4.54034 15.9986 4.54034C22.3168 4.54034 27.4597 8.6906 27.4597 13.792C27.4597 16.6176 25.8837 19.2535 23.1361 21.0249Z" fill="black"/>
<path id="Vector_4" opacity="0.2" d="M15.9986 4.54034C9.68027 4.54034 4.54034 8.6906 4.54034 13.792C4.54034 16.4674 5.98057 19.0138 8.49229 20.7765C8.79265 20.9873 8.9024 21.3811 8.75414 21.7171C8.65017 21.9549 8.59626 22.2081 8.59626 22.467V25.281C8.59626 26.3131 9.43574 27.1526 10.4678 27.1526C11.4998 27.1526 12.3393 26.3131 12.3393 25.281C12.3393 24.8565 12.6839 24.5109 13.1095 24.5109C13.535 24.5109 13.8796 24.8565 13.8796 25.281V25.5439C13.8796 26.5759 14.7191 27.4154 15.7511 27.4154C16.7832 27.4154 17.6227 26.5759 17.6227 25.5439V25.281C17.6227 24.8565 17.9673 24.5109 18.3928 24.5109C18.8184 24.5109 19.163 24.8565 19.163 25.281C19.163 26.3131 20.0025 27.1526 21.0335 27.1526C22.0646 27.1526 22.9051 26.3131 22.9051 25.281V22.467C22.9051 22.2754 22.8762 22.0858 22.8184 21.9038C22.7144 21.5727 22.8444 21.2136 23.1361 21.0249C25.8837 19.2535 27.4597 16.6176 27.4597 13.792C27.4597 8.6906 22.3178 4.54034 15.9986 4.54034ZM21.8259 18.1127C20.3327 19.4499 18.209 20.2172 15.9986 20.2172C13.7882 20.2172 11.6635 19.4499 10.1713 18.1136C9.45692 17.4725 8.26027 16.117 8.26027 14.2378C8.26027 12.3585 9.45789 11.0021 10.1722 10.3638C11.6596 9.02851 13.7843 8.26122 15.9986 8.26122C18.2128 8.26122 20.3366 9.02851 21.8259 10.3657C22.5392 11.003 23.7388 12.3547 23.7388 14.2378C23.7388 16.1208 22.5402 17.4715 21.8259 18.1127Z" fill="black"/>
<g id="Group_2">
<path id="Vector_5" d="M21.3118 10.9385C19.9601 9.72454 18.0241 9.03139 15.9986 9.03139C13.973 9.03139 12.037 9.72454 10.6854 10.9385C10.0673 11.4902 9.03046 12.6579 9.03046 14.2377C9.03046 15.8176 10.0673 16.9844 10.6854 17.5399C12.037 18.7509 13.9759 19.447 15.9986 19.447C18.0212 19.447 19.9601 18.7509 21.3118 17.5399C21.9299 16.9844 22.9686 15.8195 22.9686 14.2377C22.9686 12.656 21.9299 11.4902 21.3118 10.9385ZM20.7977 16.9661C19.5837 18.053 17.8345 18.6768 15.9986 18.6768C14.1627 18.6768 12.4125 18.053 11.1995 16.967C10.6767 16.4972 9.80063 15.5191 9.80063 14.2377C9.80063 12.9564 10.6757 11.9792 11.1995 11.5113C12.4096 10.4244 14.1588 9.80156 15.9986 9.80156C17.8383 9.80156 19.5866 10.4244 20.7987 11.5123C21.3214 11.9802 22.1985 12.9554 22.1985 14.2377C22.1985 15.5201 21.3205 16.4963 20.7977 16.9661Z" fill="white"/>
<path id="Vector_6" d="M21.8259 10.3657C20.3366 9.02851 18.2128 8.26123 15.9986 8.26123C13.7843 8.26123 11.6596 9.02851 10.1722 10.3638C9.4579 11.0021 8.26028 12.3528 8.26028 14.2378C8.26028 16.1227 9.45694 17.4725 10.1713 18.1136C11.6635 19.4499 13.7872 20.2172 15.9986 20.2172C18.2099 20.2172 20.3327 19.4499 21.8259 18.1127C22.5402 17.4715 23.7388 16.115 23.7388 14.2378C23.7388 12.3605 22.5393 11.003 21.8259 10.3657ZM20.7977 16.9661C19.5837 18.053 17.8345 18.6768 15.9986 18.6768C14.1627 18.6768 12.4125 18.053 11.1995 16.967C10.6767 16.4972 9.80063 15.5191 9.80063 14.2378C9.80063 12.9564 10.6757 11.9792 11.1995 11.5113C12.4096 10.4244 14.1588 9.80157 15.9986 9.80157C17.8383 9.80157 19.5866 10.4244 20.7987 11.5123C21.3214 11.9802 22.1985 12.9554 22.1985 14.2378C22.1985 15.5201 21.3205 16.4963 20.7977 16.9661Z" fill="black"/>
</g>
</g>
</g>
</svg>
