<svg width="32" height="32" viewBox="0 0 32 32" fill="none" xmlns="http://www.w3.org/2000/svg">
<g id="psychic">
<g id="Group">
<path id="Vector" opacity="0.2" d="M26.4908 16.6744C25.9914 17.9271 25.1884 19.029 24.1682 19.8594C23.0544 20.768 21.6974 21.3611 20.1363 21.6232C20.1304 21.6244 20.1233 21.6256 20.1174 21.6268C19.8185 21.6802 19.5112 21.7075 19.2028 21.7075C17.4781 21.7075 15.7356 20.8771 14.5411 19.4869C13.4877 18.2592 13.0299 16.7836 13.2529 15.3305C13.2552 15.3139 13.2576 15.2973 13.26 15.2807C13.3762 14.3542 13.827 13.4942 14.464 12.8406C14.2576 13.0897 14.0796 13.3697 13.9325 13.6734C13.4225 14.7267 13.3525 15.9402 13.7416 17.0066C14.4462 19.0278 16.458 20.3837 18.7568 20.3837C19.2669 20.3837 19.7734 20.3161 20.2621 20.1832C21.9678 19.736 23.3794 18.5557 24.2394 16.8583C25.2014 14.958 25.3319 12.703 24.5869 10.8241C23.4328 7.81711 20.4151 5.94885 16.7071 5.94885C14.9408 5.94885 13.1758 6.39961 11.731 7.21689C9.42856 8.46477 7.67299 10.8526 7.03245 13.6093C6.17957 17.2225 6.91383 20.7348 9.10117 23.4998C9.89355 24.501 10.8508 25.3728 11.9302 26.0952C10.4012 25.4001 9.0217 24.4428 7.90667 23.2685C5.7905 21.0408 4.75495 18.2295 4.91271 15.1359C4.91627 15.0897 4.91627 15.0422 4.91508 14.996C4.83798 11.5857 6.46307 9.18954 7.84025 7.78152C10.2162 5.34982 13.7036 3.89792 17.1673 3.89792C20.4092 3.89792 23.2205 5.19087 25.0887 7.53835C26.1183 8.91078 26.7838 10.5003 27.0115 12.136C27.231 13.7006 27.0507 15.27 26.4908 16.6744Z" fill="black"/>
<path id="Vector_2" d="M26.1776 25.6255C25.4161 25.6255 24.1647 25.973 23.6926 26.0584C22.4589 26.4143 21.2098 26.5827 19.9857 26.5827C13.1781 26.5827 7.14986 21.3575 8.88052 14.0423C9.37872 11.8964 10.7417 9.90481 12.6514 8.87756C13.84 8.19906 15.2789 7.84676 16.707 7.84676C19.3036 7.84676 21.8646 9.01397 22.8183 11.5133C23.823 14.0328 22.5894 17.6186 19.7722 18.3493C19.4388 18.4419 19.096 18.4857 18.7568 18.4857C17.3523 18.4857 15.9929 17.723 15.5291 16.3696C15.1211 15.27 15.6525 13.8228 16.783 13.4563C16.9502 13.3993 17.1234 13.3721 17.2942 13.3721C17.6204 13.3721 17.9359 13.4753 18.1744 13.6805C18.5101 13.9474 18.6204 14.4064 18.2028 14.6389C17.6216 15.0826 15.8328 15.1561 16.4935 16.2391C16.8434 16.8891 17.8399 17.4775 18.7627 17.4775C18.8588 17.4775 18.9525 17.4716 19.0462 17.4585C21.1102 17.2948 22.4186 15.0695 21.8824 13.1206C21.4471 11.3116 19.733 9.99852 17.917 9.77077C17.6643 9.73281 17.4128 9.71502 17.1649 9.71502C14.2789 9.71502 11.7357 12.1882 11.3763 15.0434C10.68 19.5901 14.8008 23.6054 19.2028 23.6054C19.618 23.6054 20.0343 23.5698 20.4507 23.4951C28.7647 22.1013 31.436 12.8074 26.5904 6.37825C24.186 3.34159 20.7128 2 17.1673 2C10.1438 2 2.84041 7.26552 3.01834 15.0387C2.58064 23.5876 10.0477 29.2754 17.8375 29.2754C20.3 29.2754 22.7958 28.7072 25.084 27.4807C25.7969 27.0275 26.5774 26.5756 26.7921 25.9493C26.8051 25.7097 26.5501 25.6255 26.1776 25.6255ZM7.90666 23.2685C5.79048 21.0408 4.75493 18.2295 4.91269 15.1359C4.91625 15.0897 4.91625 15.0422 4.91507 14.996C4.83796 11.5856 6.46306 9.18953 7.84023 7.78152C10.2162 5.34982 13.7036 3.89791 17.1673 3.89791C20.4092 3.89791 23.2204 5.19087 25.0887 7.53835C26.1183 8.91078 26.7838 10.5003 27.0115 12.136C27.231 13.7006 27.0507 15.27 26.4908 16.6744C25.9914 17.927 25.1883 19.029 24.1682 19.8594C23.0544 20.768 21.6974 21.3611 20.1363 21.6232C20.1304 21.6244 20.1233 21.6256 20.1174 21.6268C19.8184 21.6802 19.5112 21.7075 19.2028 21.7075C17.4781 21.7075 15.7355 20.8771 14.541 19.4869C13.4877 18.2592 13.0298 16.7836 13.2528 15.3305C13.2552 15.3139 13.2576 15.2973 13.26 15.2806C13.3762 14.3542 13.827 13.4942 14.4639 12.8406C14.2575 13.0897 14.0796 13.3697 13.9325 13.6734C13.4225 14.7267 13.3525 15.9402 13.7416 17.0066C14.4462 19.0278 16.4579 20.3837 18.7568 20.3837C19.2668 20.3837 19.7734 20.316 20.2621 20.1832C21.9678 19.736 23.3794 18.5557 24.2394 16.8583C25.2014 14.958 25.3319 12.703 24.5869 10.8241C23.4328 7.8171 20.4151 5.94885 16.707 5.94885C14.9408 5.94885 13.1757 6.3996 11.7309 7.21689C9.42854 8.46477 7.67298 10.8526 7.03243 13.6093C6.17956 17.2224 6.91381 20.7348 9.10116 23.4998C9.89353 24.5009 10.8508 25.3728 11.9302 26.0952C10.4012 25.4001 9.02168 24.4428 7.90666 23.2685Z" fill="black"/>
</g>
</g>
</svg>
