<svg width="32" height="32" viewBox="0 0 32 32" fill="none" xmlns="http://www.w3.org/2000/svg">
<g id="rock">
<g id="Group 1">
<path id="Vector" d="M26.12 13.4735L27.195 16.8119L26.8564 17.0595L25.5359 15.2353C25.5274 15.2236 25.5253 15.2078 25.5295 15.194L26.12 13.4735ZM26.1655 8.55746C26.084 8.55746 26.0015 8.60401 25.9697 8.69713L23.9286 14.6438C23.7445 15.1792 23.8334 15.7696 24.1646 16.2278L25.865 18.5768C26.0702 18.8604 26.3908 19.0106 26.7157 19.0106C26.9305 19.0106 27.1474 18.945 27.3347 18.8075L28.5706 17.9028C28.9356 17.6361 29.088 17.1653 28.9494 16.7346L26.3633 8.70031C26.3327 8.60507 26.2491 8.5564 26.1655 8.5564V8.55746Z" fill="black"/>
<path id="Vector_2" d="M23.6281 6.26559L12.7728 6C12.7538 6 12.7347 6 12.7157 6C12.0353 6 11.3888 6.29733 10.9454 6.81475L3.25183 15.8045C3.08888 15.995 3 16.2363 3 16.487V21.019C3 21.475 3.29522 21.8792 3.73117 22.0178L9.41539 23.8283C9.51908 23.8621 9.62701 23.878 9.73388 23.878C9.95397 23.878 10.1709 23.8082 10.3529 23.6749L21.169 15.758C21.7298 15.3485 22.152 14.775 22.3774 14.1179L24.5941 7.65596C24.8248 6.98511 24.337 6.28358 23.6281 6.26665V6.26559ZM20.7754 13.5677C20.6622 13.8989 20.4527 14.1846 20.1691 14.3909L9.61749 22.1152L4.69299 20.547V16.7241L12.2321 7.91414C12.3527 7.77341 12.5294 7.69193 12.7157 7.69193H12.7305L22.7075 7.93636L20.7754 13.5677Z" fill="black"/>
<path id="Vector_3" opacity="0.2" d="M22.7075 7.93638L20.7754 13.5677C20.6622 13.8989 20.4526 14.1846 20.1691 14.3909L9.61749 22.1152L4.69299 20.5471V16.7241L12.2321 7.91416C12.3527 7.77343 12.5294 7.69196 12.7157 7.69196H12.7305L22.7075 7.93638Z" fill="black"/>
<path id="Vector_4" d="M22.1689 19.1546L22.8006 20.0275L16.8148 24.4082L15.5451 24.0039L22.1679 19.1546M22.407 17.0288C22.2811 17.0288 22.1541 17.0669 22.0451 17.1473L13.5241 23.386C12.8321 23.8928 13.0077 24.9711 13.8256 25.2314L16.6149 26.1202C16.7196 26.153 16.8265 26.1699 16.9333 26.1699C17.1534 26.1699 17.3714 26.1011 17.5534 25.9678L24.3201 21.0158C24.7857 20.6751 24.8883 20.0212 24.5497 19.5535L22.9054 17.2828C22.7858 17.1166 22.5975 17.0288 22.4081 17.0288H22.407Z" fill="black"/>
</g>
</g>
</svg>
