<svg width="32" height="32" viewBox="0 0 32 32" fill="none" xmlns="http://www.w3.org/2000/svg">
<g id="special_attack">
<g id="Group">
<path id="Vector" d="M27.0619 24.9597L23.7743 21.6742L25.7549 19.6936C26.019 19.4284 26.019 18.9962 25.7549 18.7311L24.9957 17.9729C24.3128 17.2911 23.2018 17.2911 22.5178 17.9729L21.9061 18.5857L19.9998 16.3327L27.622 9.88343C27.7386 9.7844 27.819 9.6472 27.849 9.49763L28.9857 3.81786C29.06 3.44959 28.8227 3.08958 28.4545 3.01428C28.3637 2.99571 28.2719 2.99571 28.1832 3.01428L22.5024 4.15003C22.3518 4.17994 22.2146 4.26143 22.1155 4.378L16.0005 11.6041L9.88537 4.378C9.78531 4.26143 9.64811 4.17994 9.49854 4.15003L3.81876 3.01428C3.6403 2.97714 3.45875 3.01324 3.30711 3.1133C3.15548 3.21336 3.05128 3.36707 3.01518 3.54553C2.99661 3.6363 2.99661 3.72708 3.01518 3.81683L4.15092 9.4966C4.18084 9.6472 4.26235 9.7844 4.37995 9.88343L12.0001 16.3327L10.0937 18.5857L9.48101 17.9729C8.79709 17.2911 7.68609 17.2911 7.00217 17.9729L6.24396 18.7311C5.97988 18.9962 5.97988 19.4284 6.24499 19.6936L8.22662 21.6742L4.93905 24.9597C3.88686 25.002 3.03066 25.8551 3.00074 26.9227C2.9863 27.4622 3.18231 27.9749 3.55264 28.368C3.924 28.7599 4.42533 28.9838 4.96484 28.9982C4.98341 28.9993 5.00301 28.9993 5.02158 28.9993C6.10162 28.9993 6.99597 28.1431 7.03929 27.0589L10.3248 23.7734L12.3064 25.754C12.5716 26.0181 13.0028 26.0181 13.2689 25.7529L14.0271 24.9947C14.7079 24.3119 14.7079 23.2009 14.0261 22.5169L13.4133 21.9052L16.0005 19.7152L18.5866 21.9032L17.9738 22.5169C17.292 23.1998 17.292 24.3119 17.9738 24.9947L18.732 25.7529C18.9971 26.017 19.4294 26.0181 19.6945 25.7529L21.6751 23.7734L24.9606 27.0589C24.9792 27.5479 25.1721 28.0079 25.5114 28.3669C25.8818 28.7589 26.3831 28.9828 26.9226 28.9982C28.0408 29.0282 28.9682 28.1493 28.9991 27.0362C29.0311 25.9304 28.1636 25.004 27.0619 24.9597ZM20.9396 19.5502L20.7281 19.7616L18.536 17.5696L18.96 17.2106L20.9396 19.5502ZM5.44037 8.99732L4.55118 4.5513L8.99618 5.44153L15.1071 12.6604L14.4273 13.464L11.7442 10.7809C11.6205 10.6499 11.4544 10.5746 11.2738 10.5684C11.0913 10.5612 10.919 10.6272 10.7859 10.751C10.6529 10.8748 10.5755 11.0439 10.5693 11.2255C10.5631 11.407 10.6281 11.5803 10.7519 11.7134C10.7612 11.7237 10.7715 11.7341 10.7818 11.7433L13.5464 14.5089L12.8821 15.294L5.44037 8.99732ZM5.51774 27.4107L5.48475 27.4437C5.22789 27.6995 4.81114 27.6995 4.55531 27.4437C4.29845 27.1868 4.29845 26.7701 4.55531 26.5132C4.68323 26.3853 4.85137 26.3213 5.01951 26.3213C5.18766 26.3213 5.35683 26.3853 5.48475 26.5132C5.73026 26.7587 5.74159 27.1517 5.51774 27.4107ZM6.5328 25.6384C6.50598 25.6075 6.47813 25.5776 6.44924 25.5487C6.42036 25.5198 6.38942 25.492 6.35848 25.4651L9.18597 22.6376L9.35826 22.8109L6.5328 25.6384ZM13.0801 24.0158L12.7851 24.3108L7.68918 19.2118L7.96666 18.9354C8.11933 18.7827 8.36795 18.7827 8.52062 18.9354L13.0646 23.4794C13.2111 23.6269 13.2163 23.8621 13.0801 24.0158ZM12.4478 20.9397L12.2353 20.7272L21.2253 11.7392L21.2325 11.731C21.4894 11.4566 21.4739 11.0243 21.1985 10.7685C20.9385 10.5261 20.53 10.5261 20.2701 10.7685L11.2728 19.7637L11.0603 19.5512L23.0006 5.43741L27.4456 4.54821L26.5564 8.99319L12.4478 20.9397ZM17.0547 18.825L17.4921 18.4547L19.7646 20.7272L19.5521 20.9387L17.0547 18.825ZM19.2127 24.3098L18.9363 24.0333C18.7836 23.8807 18.7836 23.6321 18.9363 23.4794L23.4813 18.9333C23.5556 18.8601 23.6536 18.8188 23.7588 18.8188C23.864 18.8188 23.961 18.8601 24.0353 18.9343L24.3128 19.2108L19.2127 24.3098ZM25.5465 25.5497C25.5176 25.5786 25.4898 25.6075 25.463 25.6384L22.6386 22.8109L22.8119 22.6376L25.6373 25.4651C25.6063 25.492 25.5754 25.5198 25.5465 25.5497ZM27.4435 27.4437C27.1877 27.6995 26.7699 27.6995 26.5141 27.4437C26.2572 27.1868 26.2572 26.7701 26.5141 26.5132C26.642 26.3853 26.8112 26.3213 26.9793 26.3213C27.1475 26.3213 27.3156 26.3853 27.4435 26.5132C27.6994 26.7701 27.6994 27.1868 27.4435 27.4437Z" fill="black"/>
<path id="Vector_2" opacity="0.2" d="M19.7646 20.7272L19.5521 20.9387L17.0547 18.825L17.4921 18.4547L19.7646 20.7272Z" fill="black"/>
<path id="Vector_3" opacity="0.2" d="M20.9396 19.5502L20.7281 19.7616L18.5361 17.5696L18.96 17.2106L20.9396 19.5502Z" fill="black"/>
<path id="Vector_4" opacity="0.2" d="M10.7859 10.751C10.6529 10.8748 10.5755 11.0439 10.5693 11.2255C10.5631 11.407 10.6281 11.5803 10.7519 11.7134C10.7612 11.7237 10.7715 11.7341 10.7818 11.7433L13.5464 14.5089L12.8821 15.294L5.44039 8.99733L4.5512 4.5513L8.9962 5.44154L15.1072 12.6604L14.4274 13.464L11.7443 10.7809C11.6205 10.6499 11.4544 10.5746 11.2739 10.5684C11.0913 10.5612 10.919 10.6272 10.7859 10.751Z" fill="black"/>
<path id="Vector_5" opacity="0.2" d="M27.4456 4.54821L26.5564 8.9932L12.4478 20.9397L12.2353 20.7272L21.2253 11.7392L21.2325 11.731C21.4894 11.4566 21.4739 11.0243 21.1985 10.7685C20.9385 10.5261 20.53 10.5261 20.2701 10.7685L11.2728 19.7637L11.0603 19.5512L23.0006 5.43741L27.4456 4.54821Z" fill="black"/>
</g>
</g>
</svg>
