<svg width="32" height="32" viewBox="0 0 32 32" fill="none" xmlns="http://www.w3.org/2000/svg">
<g id="special_defend">
<g id="Group">
<g id="Group_2">
<path id="Vector" d="M23.4252 9.77072C23.3908 9.44508 23.1309 9.18416 22.8053 9.15078C18.0562 8.74222 16.5827 5.96517 15.5522 6.67106C9.53591 10.9347 8.2404 6.99265 8.5266 11.8732C8.66718 16.8974 10.7859 22.2321 15.7099 24.106C17.1015 24.2122 18.9431 22.6042 19.8988 21.6941C22.7406 18.6884 23.7408 13.8311 23.4252 9.77072ZM15.9961 22.6963C11.8417 20.882 10.4865 16.7316 10.083 13.55C9.85244 12.3799 9.90808 11.0258 9.91617 10.4594C12.945 10.0165 15.1406 8.67244 15.9961 8.07274C16.8517 8.67244 19.0473 10.0165 22.0762 10.4594C22.1146 14.7636 21.2145 20.2914 15.9961 22.6963Z" fill="black"/>
<path id="Vector_2" d="M28.9975 24.4347C29.0006 24.19 28.8812 23.9513 28.676 23.8158L26.4045 22.2958C26.6351 21.9034 26.9385 21.3512 26.5168 20.969C26.357 20.7889 25.6784 20.1215 24.4679 19.4621C25.0747 18.0715 25.5126 16.6547 25.8392 15.0882C26.5198 12.1058 26.4521 8.19813 26.354 7.58325C26.3934 6.73173 25.5105 6.74488 24.8967 6.66903C24.8967 6.66903 24.8825 6.66701 24.8815 6.66701C24.3384 6.5861 23.7984 6.4789 23.2624 6.34844C22.7264 6.21799 22.1945 6.06427 21.6726 5.88831C17.8175 4.59282 16.8922 3.18305 15.9972 3C15.1011 3.17597 14.1728 4.59686 10.3197 5.88831C9.27499 6.24024 8.1959 6.50419 7.11076 6.66701C7.10975 6.66701 7.09662 6.66903 7.0956 6.66903C6.4959 6.74387 5.6373 6.73173 5.6373 7.52763C5.6373 7.54584 5.63731 7.56403 5.63832 7.58325C5.29346 9.42484 5.93765 16.4808 7.5244 19.4621C6.31285 20.1225 5.63628 20.7889 5.47548 20.969C5.05377 21.3502 5.35717 21.9044 5.58775 22.2958L3.31635 23.8158C2.87239 24.0959 2.90068 24.8119 3.36993 25.0526L5.25908 26.0922V28.1715C5.252 28.5609 5.59381 28.9037 5.98316 28.8966C6.20262 28.9987 10.3975 26.3906 10.6099 26.2551C11.1004 25.7838 10.5998 25.1639 10.3985 24.6906C10.5634 24.6167 10.7323 24.546 10.9042 24.4792C12.3392 25.8465 14.0686 27.0914 15.9961 27.6658C17.9247 27.0914 19.652 25.8465 21.0881 24.4792C21.26 24.546 21.4289 24.6167 21.5937 24.6906C21.3925 25.1659 20.8919 25.7828 21.3824 26.2551C21.6008 26.3936 25.7816 28.9947 26.0091 28.8966C26.3985 28.9027 26.7413 28.5619 26.7332 28.1715V26.0922C27.1377 25.7626 29.0784 25.1254 28.9975 24.4347ZM6.70827 26.9023C6.76996 24.9404 6.74469 25.267 5.11244 24.3578L6.26431 23.5862L7.38384 25.7261C7.43643 25.8232 7.51125 25.9122 7.60227 25.9769H7.60328L7.60733 25.979H7.60632L7.61138 25.983C7.72869 26.07 7.8824 26.1054 8.026 26.1246C8.00274 26.1388 6.73051 26.8892 6.70827 26.9023ZM8.71269 23.9442C8.55391 24.0413 8.39614 24.1465 8.24849 24.2527L6.8792 21.6364C7.14517 21.4119 7.56485 21.0984 8.15849 20.7667C8.64695 21.6789 9.21126 22.5365 9.8676 23.3405C9.46813 23.5174 9.08182 23.7157 8.71269 23.9442ZM15.9961 26.158C15.9395 26.1347 15.8829 26.1104 15.8273 26.0852C8.92912 23.2495 6.67997 14.6473 7.05516 8.13847C11.0286 7.52764 13.5579 6.29687 15.9961 4.63428C18.4364 6.29788 20.9617 7.52663 24.9371 8.13847C25.3153 14.7312 23.0187 23.3779 15.9961 26.158ZM23.3838 24.0089C22.9833 23.7541 22.5616 23.5336 22.1247 23.3405C22.781 22.5365 23.3453 21.6789 23.8338 20.7667C24.4274 21.0984 24.8471 21.4119 25.1131 21.6364L23.7438 24.2527C23.6285 24.1697 23.5082 24.0878 23.3838 24.0089ZM25.284 26.9023C25.2597 26.8881 23.9905 26.1388 23.9663 26.1246C24.1099 26.1054 24.2636 26.07 24.3809 25.983L24.386 25.98H24.3849L24.389 25.9759H24.39C24.5791 25.9416 25.6076 23.7571 25.728 23.5862L26.8799 24.3578C25.2426 25.269 25.2243 24.9444 25.284 26.9023Z" fill="black"/>
<path id="Vector_3" opacity="0.2" d="M25.284 26.9023C25.2598 26.8882 23.9906 26.1388 23.9663 26.1246C24.1099 26.1054 24.2636 26.07 24.3809 25.983L24.386 25.98H24.385L24.389 25.976H24.39C24.5792 25.9416 25.6077 23.7572 25.728 23.5862L26.8799 24.3579C25.2426 25.269 25.2244 24.9444 25.284 26.9023Z" fill="black"/>
<path id="Vector_4" opacity="0.2" d="M25.1131 21.6364L23.7438 24.2527C23.6285 24.1697 23.5082 24.0878 23.3838 24.0089C22.9833 23.7541 22.5616 23.5336 22.1247 23.3405C22.781 22.5365 23.3454 21.6789 23.8338 20.7667C24.4275 21.0984 24.8471 21.4119 25.1131 21.6364Z" fill="black"/>
<path id="Vector_5" opacity="0.2" d="M6.70828 26.9023C6.76997 24.9404 6.74471 25.267 5.11246 24.3579L6.26433 23.5862L7.38385 25.7262C7.43644 25.8233 7.51127 25.9122 7.60229 25.977H7.6033L7.60735 25.979H7.60634L7.6114 25.983C7.72871 26.07 7.88242 26.1054 8.02602 26.1246C8.00276 26.1388 6.73053 26.8892 6.70828 26.9023Z" fill="black"/>
<path id="Vector_6" opacity="0.2" d="M9.86761 23.3405C9.46814 23.5174 9.08183 23.7157 8.7127 23.9442C8.55393 24.0413 8.39616 24.1465 8.2485 24.2527L6.87921 21.6364C7.14519 21.4119 7.56487 21.0984 8.15851 20.7667C8.64697 21.6789 9.21127 22.5365 9.86761 23.3405Z" fill="black"/>
<path id="Vector_7" opacity="0.2" d="M24.9371 8.13847C20.9617 7.52662 18.4364 6.29788 15.9961 4.63428C13.5579 6.29687 11.0286 7.52764 7.05516 8.13847C6.67996 14.6473 8.92912 23.2494 15.8273 26.0852C15.8829 26.1104 15.9395 26.1347 15.9961 26.158C23.0187 23.3779 25.3153 14.7312 24.9371 8.13847ZM19.8988 21.6941C18.9431 22.6042 17.1015 24.2122 15.7099 24.106C10.7859 22.2321 8.66717 16.8974 8.5266 11.8732C8.2404 6.99265 9.5359 10.9347 15.5522 6.67106C16.5827 5.96516 18.0562 8.74221 22.8053 9.15078C23.1309 9.18415 23.3908 9.44507 23.4252 9.77071C23.7407 13.8311 22.7406 18.6884 19.8988 21.6941Z" fill="black"/>
</g>
<path id="Vector_8" d="M19.6763 15.7041L17.8661 12.662C17.6375 12.2535 16.9893 12.2535 16.7617 12.662L16.429 13.2213C16.0386 12.6782 15.4197 10.8518 14.549 11.9187L12.2968 15.703C12.0399 16.1035 12.3807 16.6608 12.849 16.6415C16.0862 16.7932 15.7575 16.3705 17.3139 13.8129L18.3748 15.5959H16.785L16.162 16.6415H19.1241C19.5924 16.6587 19.9332 16.1045 19.6763 15.703V15.7041ZM15.808 14.2609C15.0253 15.5827 15.1972 15.6555 13.5973 15.5969L15.1011 13.0706L15.808 14.2609Z" fill="black"/>
</g>
</g>
</svg>
