<svg width="32" height="32" viewBox="0 0 32 32" fill="none" xmlns="http://www.w3.org/2000/svg">
<g id="speed">
<g id="Group">
<path id="Vector" d="M18.4871 5C14.775 5 11.5124 6.92475 9.64174 9.8302C9.57513 9.80855 9.5052 9.79607 9.43194 9.79607H5.44757C5.0796 9.79607 4.78156 10.0941 4.78156 10.4621C4.78156 10.83 5.0796 11.1281 5.44757 11.1281H8.93077C8.75345 11.5144 8.59861 11.9123 8.4679 12.3219H4.58426C4.21629 12.3219 3.91826 12.6199 3.91826 12.9879C3.91826 13.3559 4.21629 13.6539 4.58426 13.6539H8.13822C8.06829 14.0443 8.02168 14.4431 7.99587 14.8469H3.666C3.29804 14.8469 3 15.1457 3 15.5129C3 15.88 3.29804 16.1789 3.666 16.1789H7.99587C8.02168 16.5835 8.06829 16.9823 8.13822 17.3727H4.58426C4.21629 17.3727 3.91826 17.6707 3.91826 18.0387C3.91826 18.4067 4.21629 18.7047 4.58426 18.7047H8.4679C8.59861 19.1143 8.75345 19.5122 8.93077 19.8985H5.44757C5.0796 19.8985 4.78156 20.1966 4.78156 20.5645C4.78156 20.9325 5.0796 21.2305 5.44757 21.2305H9.43194C9.5052 21.2305 9.57597 21.218 9.64174 21.1964C11.5124 24.1018 14.775 26.0258 18.4871 26.0258C24.293 26.0258 29 21.3196 29 15.5129C29 9.70616 24.293 5 18.4871 5ZM24.979 22.0048C23.2449 23.7389 20.9397 24.6938 18.4871 24.6938C16.0345 24.6938 13.7293 23.7389 11.9952 22.0048C10.2611 20.2707 9.30623 17.9654 9.30623 15.5129C9.30623 13.0603 10.2611 10.7551 11.9952 9.021C13.7293 7.28773 16.0345 6.33201 18.4871 6.33201C20.9397 6.33201 23.2449 7.28773 24.979 9.021C26.7131 10.7551 27.668 13.0612 27.668 15.5129C27.668 17.9646 26.7131 20.2707 24.979 22.0048Z" fill="black"/>
<path id="Vector_2" opacity="0.2" d="M24.979 9.02099C23.2449 7.28772 20.9397 6.332 18.4871 6.332C16.0346 6.332 13.7294 7.28772 11.9952 9.02099C10.2611 10.7551 9.30624 13.0611 9.30624 15.5129C9.30624 17.9646 10.2611 20.2706 11.9952 22.0048C13.7294 23.7389 16.0346 24.6937 18.4871 24.6937C20.9397 24.6937 23.2449 23.7389 24.979 22.0048C26.7131 20.2706 27.668 17.9654 27.668 15.5129C27.668 13.0603 26.7131 10.7551 24.979 9.02099ZM18.4871 22.784C14.4719 22.784 11.216 19.5289 11.216 15.5129C11.216 11.4969 14.4719 8.2426 18.4871 8.2426C22.5023 8.2426 25.7582 11.4977 25.7582 15.5129C25.7582 19.5281 22.5031 22.784 18.4871 22.784Z" fill="black"/>
<path id="Vector_3" d="M18.4871 8.24261C14.4719 8.24261 11.216 11.4977 11.216 15.5129C11.216 19.5281 14.4719 22.784 18.4871 22.784C22.5023 22.784 25.7582 19.5289 25.7582 15.5129C25.7582 11.4969 22.5031 8.24261 18.4871 8.24261ZM23.1283 19.2125L22.4665 18.5499C22.2059 18.2901 21.7847 18.2901 21.5241 18.5499C21.2643 18.8104 21.2643 19.2317 21.5241 19.4923L22.1868 20.1541C21.3343 20.8351 20.292 21.2863 19.1531 21.4137V20.4746C19.1531 20.1067 18.8551 19.8086 18.4871 19.8086C18.1191 19.8086 17.8211 20.1067 17.8211 20.4746V21.4137C16.6822 21.2863 15.6399 20.8351 14.7883 20.1541L15.4501 19.4923C15.7099 19.2317 15.7099 18.8104 15.4501 18.5499C15.1904 18.2901 14.7683 18.2901 14.5086 18.5507L13.8459 19.2125C13.1657 18.3601 12.7145 17.3186 12.5863 16.1789H13.5262C13.8942 16.1789 14.1922 15.8809 14.1922 15.5129C14.1922 15.1449 13.8942 14.8469 13.5262 14.8469H12.5863C12.7145 13.708 13.1657 12.6657 13.8459 11.8141L14.5086 12.4759C14.6384 12.6058 14.8091 12.6715 14.9789 12.6715C15.1488 12.6715 15.3203 12.6058 15.4501 12.4759C15.7099 12.2162 15.7099 11.7941 15.4501 11.5343L14.7883 10.8717C15.6399 10.1915 16.6822 9.74029 17.8211 9.61292V10.552C17.8211 10.92 18.1191 11.218 18.4871 11.218C18.8551 11.218 19.1531 10.92 19.1531 10.552V9.61292C20.2928 9.74029 21.3343 10.1915 22.1868 10.8725L21.5241 11.5343C21.2643 11.7941 21.2643 12.2162 21.5241 12.4759C21.654 12.6058 21.8246 12.6715 21.9953 12.6715C22.166 12.6715 22.3358 12.6058 22.4665 12.4759L23.1283 11.8141C23.8085 12.6657 24.2605 13.708 24.3879 14.8469H23.448C23.0809 14.8469 22.782 15.1458 22.782 15.5129C22.782 15.88 23.0809 16.1789 23.448 16.1789H24.3879C24.2605 17.3186 23.8085 18.3601 23.1283 19.2125Z" fill="black"/>
<path id="Vector_4" d="M20.0747 12.9671L18.4879 14.5663L17.8319 13.9045C17.573 13.6431 17.1518 13.6414 16.8903 13.9003C16.6289 14.1592 16.6273 14.5805 16.8862 14.8419L18.0151 15.9816C18.1399 16.1081 18.3106 16.1789 18.4879 16.1789C18.6653 16.1789 18.8359 16.1081 18.9608 15.9816L21.0204 13.9053C21.2793 13.6439 21.2777 13.2227 21.0163 12.9638C20.7557 12.7049 20.3336 12.7065 20.0747 12.9679V12.9671Z" fill="black"/>
</g>
</g>
</svg>
