<svg width="32" height="32" viewBox="0 0 32 32" fill="none" xmlns="http://www.w3.org/2000/svg">
<g id="steel">
<g id="Group">
<path id="Vector" opacity="0.2" d="M28.1159 16.2951L22.1504 5.96182C22.113 5.89556 22.0414 5.85495 21.9655 5.85495H10.0345C9.9586 5.85495 9.887 5.89556 9.84959 5.96182L3.88408 16.2941C3.84561 16.3603 3.84561 16.4426 3.88408 16.5089L9.84959 26.8411C9.887 26.9074 9.9586 26.948 10.0345 26.948H21.9655C22.0414 26.948 22.113 26.9074 22.1504 26.8411L28.1159 16.5089C28.1544 16.4426 28.1544 16.3603 28.1159 16.2951ZM16 21.9048C12.9659 21.9048 10.4972 19.4361 10.4972 16.402C10.4972 13.3679 12.9659 10.8982 16 10.8982C19.034 10.8982 21.5028 13.3669 21.5028 16.402C21.5028 19.4371 19.034 21.9048 16 21.9048Z" fill="black"/>
<path id="Vector_2" d="M21.5957 6.70993L27.1915 16.401L21.5957 26.092H10.4053L4.80959 16.401L10.4053 6.70993H21.5957ZM21.9655 5H10.0345C9.65296 5 9.30029 5.20412 9.10899 5.53435L3.14347 15.8666C2.95218 16.1968 2.95218 16.6051 3.14347 16.9353L9.10899 27.2675C9.30029 27.5978 9.65296 27.8019 10.0345 27.8019H21.9655C22.347 27.8019 22.6997 27.5978 22.891 27.2675L28.8565 16.9353C29.0478 16.6051 29.0478 16.1968 28.8565 15.8666L22.891 5.53435C22.6997 5.20412 22.347 5 21.9655 5Z" fill="black"/>
<path id="Vector_3" d="M16 11.7531C18.5628 11.7531 20.6478 13.8382 20.6478 16.4009C20.6478 18.9637 18.5628 21.0487 16 21.0487C13.4372 21.0487 11.3522 18.9637 11.3522 16.4009C11.3522 13.8382 13.4372 11.7531 16 11.7531ZM16 10.0432C12.4882 10.0432 9.64227 12.8902 9.64227 16.4009C9.64227 19.9116 12.4893 22.7587 16 22.7587C19.5107 22.7587 22.3577 19.9116 22.3577 16.4009C22.3577 12.8902 19.5107 10.0432 16 10.0432Z" fill="black"/>
</g>
</g>
</svg>
