<svg width="32" height="32" size="32" viewBox="0 0 32 32" fill="none" xmlns="http://www.w3.org/2000/svg">
<g id="total">
<g id="Group">
<path id="Vector" d="M28.3485 14.5746C28.9394 13.9981 29.1479 13.1526 28.8933 12.3677C28.6377 11.5827 27.9719 11.0216 27.1552 10.9025L21.0225 10.0109C20.8707 9.98972 20.74 9.89364 20.6718 9.75625L17.9307 4.20002C17.5656 3.45925 16.8258 3 15.9995 3C15.1733 3 14.4344 3.45925 14.0703 4.20002L11.3272 9.75721C11.26 9.89364 11.1293 9.98876 10.9765 10.0109L4.84479 10.9025C4.02813 11.0216 3.36229 11.5827 3.10672 12.3677C2.85211 13.1526 3.06062 13.9981 3.6515 14.5746L8.08841 18.8991C8.1989 19.0067 8.24885 19.1604 8.22291 19.3113L7.17566 25.419C7.03635 26.2318 7.36397 27.0389 8.03075 27.5241C8.40834 27.7989 8.85032 27.9382 9.2942 27.9382C9.6372 27.9382 9.98116 27.8555 10.2992 27.6884L15.7834 24.805C15.9188 24.733 16.0812 24.733 16.2167 24.805L21.7018 27.6884C22.0112 27.8507 22.358 27.9372 22.7048 27.9372C23.1603 27.9372 23.5974 27.794 23.9692 27.5241C24.636 27.0389 24.9637 26.2318 24.8243 25.419L23.7771 19.3122C23.7511 19.1614 23.8011 19.0067 23.9116 18.9L28.3485 14.5746ZM22.1149 19.5976L23.1622 25.7043C23.1929 25.8859 23.1257 26.0521 22.9777 26.1597C22.8288 26.2674 22.6491 26.2808 22.4868 26.1963L17.0016 23.311C16.6932 23.1496 16.3473 23.0641 15.9995 23.0641C15.6517 23.0641 15.3068 23.1506 14.9984 23.312L9.51615 26.1953C9.35089 26.2808 9.17121 26.2674 9.02325 26.1597C8.87529 26.0521 8.80708 25.8859 8.83783 25.7043L9.88507 19.5966C10.0052 18.8981 9.77363 18.1862 9.26633 17.6914L4.82847 13.3659C4.69684 13.2381 4.65361 13.0642 4.71125 12.8884C4.76794 12.7135 4.90436 12.5983 5.08691 12.5714L11.2187 11.6807C11.921 11.5789 12.5263 11.1388 12.8395 10.5028L15.5816 4.94559C15.6632 4.7813 15.8151 4.68714 15.9995 4.68714C16.184 4.68714 16.3358 4.7813 16.4175 4.94655L19.1595 10.5028C19.4728 11.1388 20.0781 11.5789 20.7804 11.6807L26.9121 12.5714C27.0947 12.5983 27.2321 12.7135 27.2888 12.8894C27.3455 13.0642 27.3022 13.2381 27.1706 13.3659L22.7337 17.6914C22.2264 18.1862 21.9948 18.8981 22.1149 19.5976Z" fill="black"/>
<path id="Vector_2" opacity="0.2" d="M22.7337 17.6914C22.2264 18.1862 21.9949 18.8981 22.115 19.5976L23.1622 25.7043C23.1929 25.8859 23.1257 26.0521 22.9777 26.1597C22.8288 26.2673 22.6492 26.2808 22.4868 26.1963L17.0017 23.311C16.6932 23.1496 16.3474 23.0641 15.9996 23.0641C15.6518 23.0641 15.3068 23.1506 14.9984 23.312L9.51618 26.1953C9.35092 26.2808 9.17124 26.2673 9.02328 26.1597C8.87532 26.0521 8.80711 25.8859 8.83786 25.7043L9.8851 19.5966C10.0052 18.8981 9.77366 18.1862 9.26636 17.6914L4.8285 13.3659C4.69687 13.2381 4.65364 13.0642 4.71129 12.8884C4.76797 12.7135 4.90439 12.5982 5.08694 12.5713L11.2187 11.6807C11.921 11.5789 12.5263 11.1388 12.8395 10.5028L15.5816 4.94559C15.6633 4.78129 15.8151 4.68713 15.9996 4.68713C16.184 4.68713 16.3358 4.78129 16.4175 4.94655L19.1596 10.5028C19.4728 11.1388 20.0781 11.5789 20.7804 11.6807L26.9122 12.5713C27.0947 12.5982 27.2321 12.7135 27.2888 12.8894C27.3455 13.0642 27.3023 13.2381 27.1706 13.3659L22.7337 17.6914Z" fill="black"/>
</g>
</g>
</svg>
