<svg width="32" height="32" viewBox="0 0 32 32" fill="none" xmlns="http://www.w3.org/2000/svg">
<g id="water">
<g id="Group">
<path id="Vector" d="M15.5404 2C13.5878 3.88318 6 11.7033 6 19.4607C6 24.7315 10.273 29 15.5404 29C20.8078 29 25.0796 24.7315 25.0796 19.4607C25.0796 11.7033 17.4929 3.88318 15.5404 2ZM15.5404 27.238C11.2509 27.238 7.76204 23.7491 7.76204 19.4607C7.76204 13.5271 12.9237 7.29053 15.5404 4.51091C18.157 7.29053 23.3176 13.5271 23.3176 19.4607C23.3176 23.7491 19.8287 27.238 15.5404 27.238Z" fill="black"/>
<path id="Vector_2" opacity="0.2" d="M23.3176 19.4607C23.3176 23.7491 19.8287 27.238 15.5404 27.238C11.252 27.238 7.76204 23.7491 7.76204 19.4607C7.76204 13.5271 12.9237 7.29054 15.5404 4.51091C18.157 7.29054 23.3176 13.5271 23.3176 19.4607Z" fill="black"/>
<path id="Vector_3" d="M10.154 17.7097C9.82583 18.4344 9.64522 19.2394 9.64522 20.0885C9.64522 23.2965 12.2464 25.8977 15.4545 25.8977C17.4125 25.8977 19.1448 24.9297 20.1944 23.4463C19.2682 23.9 18.2286 24.1544 17.1284 24.1544C13.4501 24.1544 10.4337 21.3153 10.154 17.7097Z" fill="black"/>
</g>
</g>
</svg>
